<?xml version="1.0" encoding="UTF-8" standalone="no"?><svg xmlns="http://www.w3.org/2000/svg" xmlns:xlink="http://www.w3.org/1999/xlink" clip-rule="evenodd" stroke-miterlimit="10" viewBox="0 0 1920 1080"><desc>SVG generated by Keynote</desc><defs><pattern id="patternP1" patternUnits="userSpaceOnUse" width="600" height="600" viewBox="0 0 600 600"><image xlink:href="../../647C4DC5-055F-42B4-992C-93F9A8A81104/assets/D0A2C249A1BF15739B3BE26442AD77DA.png" width="600.00" height="600.00"></image></pattern><linearGradient id="gradSh1.13" x1="0.0" y1="0.0" x2="100.0" y2="0.0" gradientUnits="userSpaceOnUse" gradientTransform="matrix(0.00, -1.08, -1.08, 0.00, 1593.8, 193.0)"><stop offset="0.00000" stop-color="#FBFBFB"></stop><stop offset="0.01466" stop-color="#FAFAFA"></stop><stop offset="1.00000" stop-color="#BEBEBE"></stop></linearGradient><linearGradient id="gradSh1.14" x1="0.0" y1="0.0" x2="100.0" y2="0.0" gradientUnits="userSpaceOnUse" gradientTransform="matrix(0.00, -1.08, -1.08, 0.00, 325.0, 193.0)"><stop offset="0.00000" stop-color="#FBFBFB"></stop><stop offset="0.01466" stop-color="#FAFAFA"></stop><stop offset="1.00000" stop-color="#BEBEBE"></stop></linearGradient></defs><g transform="matrix(1.00, 0.00, -0.00, -1.00, 0.0, 1080.0)"><path d="M 0.0 1080.0 L 1920.0 1080.0 L 1920.0 0.0 L 0.0 0.0 Z M 0.0 1080.0 " fill="#FEFFFF"></path><image xlink:href="5CB27293468E2B14D9D57FCA5CEF49B2.png" width="800.00" height="500.00" transform="matrix(1.34, 0.00, -0.00, -1.34, 422.1, 924.5)"></image><image xlink:href="../../647C4DC5-055F-42B4-992C-93F9A8A81104/assets/79DF6794D3CCA907B9E2C669267B52A4.png" width="1456.00" height="241.00" transform="matrix(1.00, 0.00, -0.00, -1.00, 231.4, 258.5)" opacity="0.50"></image><g><clipPath id="clip0x6080044be5a0"><path d="M 233.0 257.0 L 1686.0 257.0 L 1686.0 20.0 L 233.0 20.0 Z M 233.4 257.5 "></path></clipPath><g clip-path="url(#clip0x6080044be5a0)"><path d="M 233.0 20.0 L 1686.0 20.0 L 1686.0 257.0 L 233.0 257.0 Z M 233.0 20.0 " fill="url(#patternP1)"></path></g></g><text xml:space="preserve" font-family="KenVector-Future-Thin,KenVector Future Thin" font-size="46.0" fill="#FEFFFE" transform="matrix(1.00, 0.00, -0.00, -1.00, 832.3, 124.4)">h</text><text xml:space="preserve" font-family="KenVector-Future-Thin,KenVector Future Thin" font-size="46.0" fill="#FEFFFE" transform="matrix(1.00, 0.00, -0.00, -1.00, 864.9, 124.4)">a</text><text xml:space="preserve" font-family="KenVector-Future-Thin,KenVector Future Thin" font-size="46.0" fill="#FEFFFE" transform="matrix(1.00, 0.00, -0.00, -1.00, 897.4, 124.4)">v</text><text xml:space="preserve" font-family="KenVector-Future-Thin,KenVector Future Thin" font-size="46.0" fill="#FEFFFE" transform="matrix(1.00, 0.00, -0.00, -1.00, 929.9, 124.4)">e</text><text xml:space="preserve" font-family="KenVector-Future-Thin,KenVector Future Thin" font-size="46.0" fill="#FEFFFE" transform="matrix(1.00, 0.00, -0.00, -1.00, 962.4, 124.4)"> </text><text xml:space="preserve" font-family="KenVector-Future-Thin,KenVector Future Thin" font-size="46.0" fill="#FEFFFE" transform="matrix(1.00, 0.00, -0.00, -1.00, 973.9, 124.4)">f</text><text xml:space="preserve" font-family="KenVector-Future-Thin,KenVector Future Thin" font-size="46.0" fill="#FEFFFE" transform="matrix(1.00, 0.00, -0.00, -1.00, 1006.4, 124.4)">u</text><text xml:space="preserve" font-family="KenVector-Future-Thin,KenVector Future Thin" font-size="46.0" fill="#FEFFFE" transform="matrix(1.00, 0.00, -0.00, -1.00, 1039.0, 124.4)">n</text><text xml:space="preserve" font-family="KenVector-Future-Thin,KenVector Future Thin" font-size="46.0" fill="#FEFFFE" transform="matrix(1.00, 0.00, -0.00, -1.00, 1071.5, 124.4)">!</text><image xlink:href="../../647C4DC5-055F-42B4-992C-93F9A8A81104/assets/90AF53DBA3E6A13A7E6A76CFCDC440D8.png" width="110.00" height="110.00" transform="matrix(1.00, 0.00, -0.00, -1.00, 1538.7, 193.0)" opacity="0.50"></image><g><clipPath id="clip0x600002ea53a0"><path d="M 1540.7 94.6 L 1541.0 183.1 C 1541.0 188.0 1544.7 192.0 1549.5 192.0 L 1638.0 192.0 C 1642.9 192.0 1647.0 188.0 1647.0 183.1 L 1647.0 94.6 C 1647.0 89.7 1642.9 86.0 1638.0 86.0 L 1549.5 86.0 C 1544.7 86.0 1540.7 89.7 1540.7 94.6 Z M 1540.7 94.6 "></path></clipPath><g clip-path="url(#clip0x600002ea53a0)"><path d="M 1540.7 94.6 L 1541.0 183.1 C 1541.0 188.0 1544.7 192.0 1549.5 192.0 L 1638.0 192.0 C 1642.9 192.0 1647.0 188.0 1647.0 183.1 L 1647.0 94.6 C 1647.0 89.7 1642.9 86.0 1638.0 86.0 L 1549.5 86.0 C 1544.7 86.0 1540.7 89.7 1540.7 94.6 Z M 1540.7 94.6 " fill="url(#gradSh1.13)"></path></g></g><g><clipPath id="clip0x608004ab0500"><path d="M 1535.1 85.8 L 1652.5 85.8 L 1652.5 192.0 L 1535.1 192.0 Z M 1535.1 85.8 "></path></clipPath><g clip-path="url(#clip0x608004ab0500)"><text xml:space="preserve" font-family="KenPixel,KenPixel" font-size="30.0" fill="#000000" transform="matrix(1.00, 0.00, -0.00, -1.00, 1571.3, 127.4)">O</text><text xml:space="preserve" font-family="KenPixel,KenPixel" font-size="30.0" fill="#000000" transform="matrix(1.00, 0.00, -0.00, -1.00, 1593.8, 127.4)">K</text></g></g><image xlink:href="../../647C4DC5-055F-42B4-992C-93F9A8A81104/assets/4C49A343D0F5EAD471A67AB279CED6A1.png" width="110.00" height="110.00" transform="matrix(1.00, 0.00, -0.00, -1.00, 270.2, 193.0)" opacity="0.50"></image><g><clipPath id="clip0x600002ea9720"><path d="M 272.2 94.6 L 272.0 183.1 C 272.0 188.0 276.2 192.0 281.1 192.0 L 369.6 192.0 C 374.4 192.0 378.0 188.0 378.0 183.1 L 378.0 94.6 C 378.0 89.7 374.4 86.0 369.6 86.0 L 281.1 86.0 C 276.2 86.0 272.2 89.7 272.2 94.6 Z M 272.2 94.6 "></path></clipPath><g clip-path="url(#clip0x600002ea9720)"><path d="M 272.2 94.6 L 272.0 183.1 C 272.0 188.0 276.2 192.0 281.1 192.0 L 369.6 192.0 C 374.4 192.0 378.0 188.0 378.0 183.1 L 378.0 94.6 C 378.0 89.7 374.4 86.0 369.6 86.0 L 281.1 86.0 C 276.2 86.0 272.2 89.7 272.2 94.6 Z M 272.2 94.6 " fill="url(#gradSh1.14)"></path></g></g><g><clipPath id="clip0x6000030a94e0"><path d="M 266.6 85.8 L 384.0 85.8 L 384.0 192.0 L 266.6 192.0 Z M 266.6 85.8 "></path></clipPath><g clip-path="url(#clip0x6000030a94e0)"><text xml:space="preserve" font-family="KenPixel,KenPixel" font-size="30.0" fill="#000000" transform="matrix(1.00, 0.00, -0.00, -1.00, 315.9, 127.4)">&lt;</text><text xml:space="preserve" font-family="KenPixel,KenPixel" font-size="30.0" fill="#000000" transform="matrix(1.00, 0.00, -0.00, -1.00, 334.7, 127.4)"> </text></g></g></g></svg>