<?xml version="1.0" encoding="UTF-8" standalone="no"?><svg xmlns="http://www.w3.org/2000/svg" xmlns:xlink="http://www.w3.org/1999/xlink" clip-rule="evenodd" stroke-miterlimit="10" viewBox="0 0 1920 1080"><desc>SVG generated by Keynote</desc><defs><pattern id="patternP1" patternUnits="userSpaceOnUse" width="600" height="600" viewBox="0 0 600 600"><image xlink:href="../../647C4DC5-055F-42B4-992C-93F9A8A81104/assets/D0A2C249A1BF15739B3BE26442AD77DA.png" width="600.00" height="600.00"></image></pattern><linearGradient id="gradSh1.11" x1="0.0" y1="0.0" x2="100.0" y2="0.0" gradientUnits="userSpaceOnUse" gradientTransform="matrix(0.00, -1.08, -1.08, 0.00, 1593.8, 193.0)"><stop offset="0.00000" stop-color="#FBFBFB"></stop><stop offset="0.01466" stop-color="#FAFAFA"></stop><stop offset="1.00000" stop-color="#BEBEBE"></stop></linearGradient><linearGradient id="gradSh1.12" x1="0.0" y1="0.0" x2="100.0" y2="0.0" gradientUnits="userSpaceOnUse" gradientTransform="matrix(0.00, -1.08, -1.08, 0.00, 325.0, 193.0)"><stop offset="0.00000" stop-color="#FBFBFB"></stop><stop offset="0.01466" stop-color="#FAFAFA"></stop><stop offset="1.00000" stop-color="#BEBEBE"></stop></linearGradient></defs><g transform="matrix(1.00, 0.00, -0.00, -1.00, 0.0, 1080.0)"><path d="M 0.0 1080.0 L 1920.0 1080.0 L 1920.0 0.0 L 0.0 0.0 Z M 0.0 1080.0 " fill="#FEFFFF"></path><image xlink:href="../../FBCC4596-8508-43ED-96C3-04CD8F2F8C25/assets/F398043A49192842CE7ECBE09BB097BF.png" width="282.00" height="282.00" transform="matrix(1.00, 0.00, -0.00, -1.00, 508.0, 1008.5)"></image><path d="M 512.5 752.0 L 512.5 985.6 C 512.5 996.3 521.2 1005.5 531.9 1005.5 L 765.7 1005.5 C 776.4 1005.5 785.5 996.3 785.5 985.6 L 785.5 751.9 C 785.5 741.2 776.4 732.5 765.7 732.5 L 531.9 732.5 C 521.2 732.5 512.5 741.3 512.5 752.0 Z M 512.5 751.9 " fill="#FEFFFE"></path><path d="M -0.0 253.0 L -0.0 19.4 C -0.0 8.7 8.7 -0.5 19.4 -0.5 L 253.2 -0.5 C 263.9 -0.5 273.0 8.7 273.0 19.4 L 273.0 253.2 C 273.0 263.9 263.9 272.5 253.2 272.5 L 19.4 272.5 C 8.7 272.5 -0.0 263.7 -0.0 253.0 Z M 0.0 253.2 " fill="none" stroke="#6FBF40" stroke-width="1.00" transform="matrix(1.00, 0.00, 0.00, -1.00, 512.5, 1005.0)"></path><g><clipPath id="clip0x6080042a0540"><path d="M 507.4 732.5 L 790.2 732.5 L 790.2 1005.0 L 507.4 1005.0 Z M 507.4 732.5 "></path></clipPath><g clip-path="url(#clip0x6080042a0540)"><text xml:space="preserve" font-family="KenPixel,KenPixel" font-size="30.0" fill="#000000" transform="matrix(1.00, 0.00, -0.00, -1.00, 648.8, 857.5)"> </text></g></g><g><clipPath id="clip0x6080042a0240"><path d="M 510.6 402.2 L 786.1 402.2 L 786.1 677.8 L 510.6 677.8 Z M 510.6 402.2 "></path></clipPath><g clip-path="url(#clip0x6080042a0240)"><path d="M 0.4 253.3 L 0.4 19.4 C 0.4 8.7 8.7 -0.2 19.4 -0.2 L 253.2 -0.2 C 263.9 -0.2 272.4 8.7 272.4 19.4 L 272.4 253.2 C 272.4 263.9 263.9 272.8 253.2 272.8 L 19.4 272.8 C 8.7 272.8 0.4 264.0 0.4 253.3 Z M 0.0 253.2 " fill="none" stroke="#D5D5D5" stroke-width="1.00" transform="matrix(1.00, 0.00, 0.00, -1.00, 512.1, 676.3)"></path></g></g><g><clipPath id="clip0x6080042a06c0"><path d="M 601.0 401.9 L 601.0 678.1 L 604.0 678.1 L 604.0 401.9 Z M 601.0 401.9 "></path></clipPath><g clip-path="url(#clip0x6080042a06c0)"><path d="M 0.1 -0.0 L 274.1 -0.0 " fill="none" stroke="#D5D5D5" stroke-width="1.00" transform="matrix(0.00, 1.00, 1.00, 0.00, 602.5, 402.9)"></path></g></g><g><clipPath id="clip0x6080044b7e20"><path d="M 693.6 401.9 L 693.6 678.1 L 696.6 678.1 L 696.6 401.9 Z M 693.6 401.9 "></path></clipPath><g clip-path="url(#clip0x6080044b7e20)"><path d="M 0.1 0.4 L 274.1 0.4 " fill="none" stroke="#D5D5D5" stroke-width="1.00" transform="matrix(0.00, 1.00, 1.00, 0.00, 695.1, 402.9)"></path></g></g><g><clipPath id="clip0x6080044b8060"><path d="M 787.4 583.9 L 510.2 583.9 L 510.2 586.9 L 787.4 586.9 Z M 787.4 583.9 "></path></clipPath><g clip-path="url(#clip0x6080044b8060)"><path d="M 0.4 0.1 L 275.4 0.1 " fill="none" stroke="#D5D5D5" stroke-width="1.00" transform="matrix(-1.00, 0.00, 0.00, 1.00, 786.4, 585.4)"></path></g></g><g><clipPath id="clip0x6080044b82a0"><path d="M 787.4 492.9 L 510.2 492.9 L 510.2 495.9 L 787.4 495.9 Z M 787.4 492.9 "></path></clipPath><g clip-path="url(#clip0x6080044b82a0)"><path d="M 0.4 0.1 L 275.4 0.1 " fill="none" stroke="#D5D5D5" stroke-width="1.00" transform="matrix(-1.00, 0.00, 0.00, 1.00, 786.4, 494.4)"></path></g></g><g><clipPath id="clip0x6080044b84e0"><path d="M 511.0 73.5 L 786.5 73.5 L 786.5 349.1 L 511.0 349.1 Z M 511.0 73.5 "></path></clipPath><g clip-path="url(#clip0x6080044b84e0)"><path d="M 0.0 253.6 L 0.0 19.4 C 0.0 8.7 8.7 0.1 19.4 0.1 L 253.2 0.1 C 263.9 0.1 273.0 8.7 273.0 19.4 L 273.0 253.2 C 273.0 263.9 263.9 272.1 253.2 272.1 L 19.4 272.1 C 8.7 272.1 0.0 264.3 0.0 253.6 Z M 0.0 253.2 " fill="none" stroke="#D5D5D5" stroke-width="1.00" transform="matrix(1.00, 0.00, 0.00, -1.00, 512.5, 347.6)"></path></g></g><g><clipPath id="clip0x6080044b8720"><path d="M 601.4 73.2 L 601.4 349.4 L 604.4 349.4 L 604.4 73.2 Z M 601.4 73.2 "></path></clipPath><g clip-path="url(#clip0x6080044b8720)"><path d="M -0.2 -0.4 L 273.8 -0.4 " fill="none" stroke="#D5D5D5" stroke-width="1.00" transform="matrix(0.00, 1.00, 1.00, 0.00, 602.9, 74.2)"></path></g></g><g><clipPath id="clip0x6080044b8960"><path d="M 694.0 73.2 L 694.0 349.4 L 697.0 349.4 L 697.0 73.2 Z M 694.0 73.2 "></path></clipPath><g clip-path="url(#clip0x6080044b8960)"><path d="M -0.2 0.0 L 273.8 0.0 " fill="none" stroke="#D5D5D5" stroke-width="1.00" transform="matrix(0.00, 1.00, 1.00, 0.00, 695.5, 74.2)"></path></g></g><g><clipPath id="clip0x6080044b8ba0"><path d="M 787.8 255.2 L 510.6 255.2 L 510.6 258.2 L 787.8 258.2 Z M 787.8 255.2 "></path></clipPath><g clip-path="url(#clip0x6080044b8ba0)"><path d="M -0.2 -0.2 L 274.8 -0.2 " fill="none" stroke="#D5D5D5" stroke-width="1.00" transform="matrix(-1.00, 0.00, 0.00, 1.00, 786.8, 256.7)"></path></g></g><g><clipPath id="clip0x6080044b8de0"><path d="M 787.8 164.2 L 510.6 164.2 L 510.6 167.2 L 787.8 167.2 Z M 787.8 164.2 "></path></clipPath><g clip-path="url(#clip0x6080044b8de0)"><path d="M -0.2 -0.2 L 274.8 -0.2 " fill="none" stroke="#D5D5D5" stroke-width="1.00" transform="matrix(-1.00, 0.00, 0.00, 1.00, 786.8, 165.7)"></path></g></g><g><clipPath id="clip0x6080044b9020"><path d="M 1132.6 73.5 L 1408.1 73.5 L 1408.1 349.1 L 1132.6 349.1 Z M 1132.6 73.5 "></path></clipPath><g clip-path="url(#clip0x6080044b9020)"><path d="M 0.4 253.6 L 0.4 19.4 C 0.4 8.7 8.7 0.1 19.4 0.1 L 253.2 0.1 C 263.9 0.1 272.4 8.7 272.4 19.4 L 272.4 253.2 C 272.4 263.9 263.9 272.1 253.2 272.1 L 19.4 272.1 C 8.7 272.1 0.4 264.3 0.4 253.6 Z M 0.0 253.2 " fill="none" stroke="#D5D5D5" stroke-width="1.00" transform="matrix(1.00, 0.00, 0.00, -1.00, 1134.1, 347.6)"></path></g></g><g><clipPath id="clip0x6080044b9260"><path d="M 1223.0 73.2 L 1223.0 349.4 L 1226.0 349.4 L 1226.0 73.2 Z M 1223.0 73.2 "></path></clipPath><g clip-path="url(#clip0x6080044b9260)"><path d="M -0.2 -0.0 L 273.8 -0.0 " fill="none" stroke="#D5D5D5" stroke-width="1.00" transform="matrix(0.00, 1.00, 1.00, 0.00, 1224.5, 74.2)"></path></g></g><g><clipPath id="clip0x6080044b94a0"><path d="M 1315.6 73.2 L 1315.6 349.4 L 1318.6 349.4 L 1318.6 73.2 Z M 1315.6 73.2 "></path></clipPath><g clip-path="url(#clip0x6080044b94a0)"><path d="M -0.2 0.4 L 273.8 0.4 " fill="none" stroke="#D5D5D5" stroke-width="1.00" transform="matrix(0.00, 1.00, 1.00, 0.00, 1317.1, 74.2)"></path></g></g><g><clipPath id="clip0x6080044b96e0"><path d="M 1409.4 255.2 L 1132.2 255.2 L 1132.2 258.2 L 1409.4 258.2 Z M 1409.4 255.2 "></path></clipPath><g clip-path="url(#clip0x6080044b96e0)"><path d="M 0.4 -0.2 L 275.4 -0.2 " fill="none" stroke="#D5D5D5" stroke-width="1.00" transform="matrix(-1.00, 0.00, 0.00, 1.00, 1408.4, 256.7)"></path></g></g><g><clipPath id="clip0x6080044b9920"><path d="M 1409.4 164.2 L 1132.2 164.2 L 1132.2 167.2 L 1409.4 167.2 Z M 1409.4 164.2 "></path></clipPath><g clip-path="url(#clip0x6080044b9920)"><path d="M 0.4 -0.2 L 275.4 -0.2 " fill="none" stroke="#D5D5D5" stroke-width="1.00" transform="matrix(-1.00, 0.00, 0.00, 1.00, 1408.4, 165.7)"></path></g></g><g><clipPath id="clip0x6080044b9b60"><path d="M 1133.0 730.9 L 1408.5 730.9 L 1408.5 1006.5 L 1133.0 1006.5 Z M 1133.0 730.9 "></path></clipPath><g clip-path="url(#clip0x6080044b9b60)"><path d="M 0.0 253.0 L 0.0 19.4 C 0.0 8.7 8.7 0.5 19.4 0.5 L 253.2 0.5 C 263.9 0.5 273.0 8.7 273.0 19.4 L 273.0 253.2 C 273.0 263.9 263.9 272.5 253.2 272.5 L 19.4 272.5 C 8.7 272.5 0.0 263.7 0.0 253.0 Z M 0.0 253.2 " fill="none" stroke="#D5D5D5" stroke-width="1.00" transform="matrix(1.00, 0.00, 0.00, -1.00, 1134.5, 1005.0)"></path></g></g><g><clipPath id="clip0x6080044b9da0"><path d="M 1223.4 730.6 L 1223.4 1006.8 L 1226.4 1006.8 L 1226.4 730.6 Z M 1223.4 730.6 "></path></clipPath><g clip-path="url(#clip0x6080044b9da0)"><path d="M 0.4 -0.4 L 274.4 -0.4 " fill="none" stroke="#D5D5D5" stroke-width="1.00" transform="matrix(0.00, 1.00, 1.00, 0.00, 1224.9, 731.6)"></path></g></g><g><clipPath id="clip0x6080044b9fe0"><path d="M 1316.0 730.6 L 1316.0 1006.8 L 1319.0 1006.8 L 1319.0 730.6 Z M 1316.0 730.6 "></path></clipPath><g clip-path="url(#clip0x6080044b9fe0)"><path d="M 0.4 0.0 L 274.4 0.0 " fill="none" stroke="#D5D5D5" stroke-width="1.00" transform="matrix(0.00, 1.00, 1.00, 0.00, 1317.5, 731.6)"></path></g></g><g><clipPath id="clip0x6080044ba220"><path d="M 1409.8 912.6 L 1132.6 912.6 L 1132.6 915.6 L 1409.8 915.6 Z M 1409.8 912.6 "></path></clipPath><g clip-path="url(#clip0x6080044ba220)"><path d="M -0.2 0.4 L 274.8 0.4 " fill="none" stroke="#D5D5D5" stroke-width="1.00" transform="matrix(-1.00, 0.00, 0.00, 1.00, 1408.8, 914.1)"></path></g></g><g><clipPath id="clip0x6080044ba460"><path d="M 1409.8 821.6 L 1132.6 821.6 L 1132.6 824.6 L 1409.8 824.6 Z M 1409.8 821.6 "></path></clipPath><g clip-path="url(#clip0x6080044ba460)"><path d="M -0.2 0.4 L 274.8 0.4 " fill="none" stroke="#D5D5D5" stroke-width="1.00" transform="matrix(-1.00, 0.00, 0.00, 1.00, 1408.8, 823.1)"></path></g></g><g><clipPath id="clip0x6080044ba6a0"><path d="M 821.8 73.5 L 1097.3 73.5 L 1097.3 349.1 L 821.8 349.1 Z M 821.8 73.5 "></path></clipPath><g clip-path="url(#clip0x6080044ba6a0)"><path d="M 0.2 253.6 L 0.2 19.4 C 0.2 8.7 8.7 0.1 19.4 0.1 L 253.2 0.1 C 263.9 0.1 272.2 8.7 272.2 19.4 L 272.2 253.2 C 272.2 263.9 263.9 272.1 253.2 272.1 L 19.4 272.1 C 8.7 272.1 0.2 264.3 0.2 253.6 Z M 0.0 253.2 " fill="none" stroke="#D5D5D5" stroke-width="1.00" transform="matrix(1.00, 0.00, 0.00, -1.00, 823.3, 347.6)"></path></g></g><g><clipPath id="clip0x6080044ba8e0"><path d="M 912.2 73.2 L 912.2 349.4 L 915.2 349.4 L 915.2 73.2 Z M 912.2 73.2 "></path></clipPath><g clip-path="url(#clip0x6080044ba8e0)"><path d="M -0.2 -0.2 L 273.8 -0.2 " fill="none" stroke="#D5D5D5" stroke-width="1.00" transform="matrix(0.00, 1.00, 1.00, 0.00, 913.7, 74.2)"></path></g></g><g><clipPath id="clip0x6080044bab20"><path d="M 1004.8 73.2 L 1004.8 349.4 L 1007.8 349.4 L 1007.8 73.2 Z M 1004.8 73.2 "></path></clipPath><g clip-path="url(#clip0x6080044bab20)"><path d="M -0.2 0.2 L 273.8 0.2 " fill="none" stroke="#D5D5D5" stroke-width="1.00" transform="matrix(0.00, 1.00, 1.00, 0.00, 1006.3, 74.2)"></path></g></g><g><clipPath id="clip0x6080044bad60"><path d="M 1098.6 255.2 L 821.4 255.2 L 821.4 258.2 L 1098.6 258.2 Z M 1098.6 255.2 "></path></clipPath><g clip-path="url(#clip0x6080044bad60)"><path d="M -0.4 -0.2 L 275.6 -0.2 " fill="none" stroke="#D5D5D5" stroke-width="1.00" transform="matrix(-1.00, 0.00, 0.00, 1.00, 1097.6, 256.7)"></path></g></g><g><clipPath id="clip0x6080044bafa0"><path d="M 1098.6 164.2 L 821.4 164.2 L 821.4 167.2 L 1098.6 167.2 Z M 1098.6 164.2 "></path></clipPath><g clip-path="url(#clip0x6080044bafa0)"><path d="M -0.4 -0.2 L 275.6 -0.2 " fill="none" stroke="#D5D5D5" stroke-width="1.00" transform="matrix(-1.00, 0.00, 0.00, 1.00, 1097.6, 165.7)"></path></g></g><g><clipPath id="clip0x6080044bb1e0"><path d="M 821.4 402.2 L 1096.9 402.2 L 1096.9 677.8 L 821.4 677.8 Z M 821.4 402.2 "></path></clipPath><g clip-path="url(#clip0x6080044bb1e0)"><path d="M -0.4 253.3 L -0.4 19.4 C -0.4 8.7 8.7 -0.2 19.4 -0.2 L 253.2 -0.2 C 263.9 -0.2 272.6 8.7 272.6 19.4 L 272.6 253.2 C 272.6 263.9 263.9 272.8 253.2 272.8 L 19.4 272.8 C 8.7 272.8 -0.4 264.0 -0.4 253.3 Z M 0.0 253.2 " fill="none" stroke="#D5D5D5" stroke-width="1.00" transform="matrix(1.00, 0.00, 0.00, -1.00, 822.9, 676.3)"></path></g></g><g><clipPath id="clip0x6080044bb420"><path d="M 911.8 401.9 L 911.8 678.1 L 914.8 678.1 L 914.8 401.9 Z M 911.8 401.9 "></path></clipPath><g clip-path="url(#clip0x6080044bb420)"><path d="M 0.1 0.2 L 274.1 0.2 " fill="none" stroke="#D5D5D5" stroke-width="1.00" transform="matrix(0.00, 1.00, 1.00, 0.00, 913.3, 402.9)"></path></g></g><g><clipPath id="clip0x6080044bb660"><path d="M 1004.4 401.9 L 1004.4 678.1 L 1007.4 678.1 L 1007.4 401.9 Z M 1004.4 401.9 "></path></clipPath><g clip-path="url(#clip0x6080044bb660)"><path d="M 0.1 -0.4 L 274.1 -0.4 " fill="none" stroke="#D5D5D5" stroke-width="1.00" transform="matrix(0.00, 1.00, 1.00, 0.00, 1005.9, 402.9)"></path></g></g><g><clipPath id="clip0x6080044bb8a0"><path d="M 1098.2 583.9 L 821.0 583.9 L 821.0 586.9 L 1098.2 586.9 Z M 1098.2 583.9 "></path></clipPath><g clip-path="url(#clip0x6080044bb8a0)"><path d="M 0.2 0.1 L 275.2 0.1 " fill="none" stroke="#D5D5D5" stroke-width="1.00" transform="matrix(-1.00, 0.00, 0.00, 1.00, 1097.2, 585.4)"></path></g></g><g><clipPath id="clip0x6080044bbae0"><path d="M 1098.2 492.9 L 821.0 492.9 L 821.0 495.9 L 1098.2 495.9 Z M 1098.2 492.9 "></path></clipPath><g clip-path="url(#clip0x6080044bbae0)"><path d="M 0.2 0.1 L 275.2 0.1 " fill="none" stroke="#D5D5D5" stroke-width="1.00" transform="matrix(-1.00, 0.00, 0.00, 1.00, 1097.2, 494.4)"></path></g></g><image xlink:href="../../8BED08EE-A62A-4DDE-9524-144071A6385E/assets/28D10E8867772B21CB75CFD0D7F55DF3.png" width="355.00" height="355.00" transform="matrix(1.00, 0.00, -0.00, -1.00, 1093.5, 717.3)" opacity="0.85"></image><path d="M 1134.5 423.1 L 1134.0 656.9 C 1134.0 667.6 1143.1 676.0 1153.8 676.0 L 1387.6 676.0 C 1398.3 676.0 1407.0 667.6 1407.0 656.9 L 1407.0 423.1 C 1407.0 412.4 1398.3 404.0 1387.6 404.0 L 1153.8 404.0 C 1143.1 404.0 1134.5 412.4 1134.5 423.1 Z M 1134.5 423.1 " fill="#FEFFFE"></path><path d="M 0.0 253.2 L -0.5 19.4 C -0.5 8.7 8.7 0.3 19.4 0.3 L 253.2 0.3 C 263.9 0.3 272.5 8.7 272.5 19.4 L 272.5 253.2 C 272.5 263.9 263.9 272.3 253.2 272.3 L 19.4 272.3 C 8.7 272.3 0.0 263.9 0.0 253.2 Z M 0.0 253.2 " fill="none" stroke="#FF2600" stroke-width="2.00" transform="matrix(1.00, 0.00, 0.00, -1.00, 1134.5, 676.3)"></path><path d="M 0.1 0.1 L 274.1 0.1 " fill="none" stroke="#FF2600" stroke-width="2.00" transform="matrix(0.00, 1.00, 1.00, 0.00, 1224.9, 402.9)"></path><path d="M 0.1 -0.5 L 274.1 -0.5 " fill="none" stroke="#FF2600" stroke-width="2.00" transform="matrix(0.00, 1.00, 1.00, 0.00, 1317.5, 402.9)"></path><path d="M -0.2 -0.4 L 274.8 -0.4 " fill="none" stroke="#FF2600" stroke-width="2.00" transform="matrix(-1.00, 0.00, 0.00, 1.00, 1408.8, 585.4)"></path><path d="M -0.2 -0.4 L 274.8 -0.4 " fill="none" stroke="#FF2600" stroke-width="2.00" transform="matrix(-1.00, 0.00, 0.00, 1.00, 1408.8, 494.4)"></path><g><clipPath id="clip0x6000028b8300"><path d="M 822.2 730.9 L 1097.7 730.9 L 1097.7 1006.5 L 822.2 1006.5 Z M 822.2 730.9 "></path></clipPath><g clip-path="url(#clip0x6000028b8300)"><path d="M -0.2 253.0 L -0.2 19.4 C -0.2 8.7 8.7 0.5 19.4 0.5 L 253.2 0.5 C 263.9 0.5 272.8 8.7 272.8 19.4 L 272.8 253.2 C 272.8 263.9 263.9 272.5 253.2 272.5 L 19.4 272.5 C 8.7 272.5 -0.2 263.7 -0.2 253.0 Z M 0.0 253.2 " fill="none" stroke="#D5D5D5" stroke-width="1.00" transform="matrix(1.00, 0.00, 0.00, -1.00, 823.7, 1005.0)"></path></g></g><g><clipPath id="clip0x6000028b8540"><path d="M 912.6 730.6 L 912.6 1006.8 L 915.6 1006.8 L 915.6 730.6 Z M 912.6 730.6 "></path></clipPath><g clip-path="url(#clip0x6000028b8540)"><path d="M 0.4 0.4 L 274.4 0.4 " fill="none" stroke="#D5D5D5" stroke-width="1.00" transform="matrix(0.00, 1.00, 1.00, 0.00, 914.1, 731.6)"></path></g></g><g><clipPath id="clip0x6000028b8780"><path d="M 1005.2 730.6 L 1005.2 1006.8 L 1008.2 1006.8 L 1008.2 730.6 Z M 1005.2 730.6 "></path></clipPath><g clip-path="url(#clip0x6000028b8780)"><path d="M 0.4 -0.2 L 274.4 -0.2 " fill="none" stroke="#D5D5D5" stroke-width="1.00" transform="matrix(0.00, 1.00, 1.00, 0.00, 1006.7, 731.6)"></path></g></g><g><clipPath id="clip0x6000028b89c0"><path d="M 1099.0 912.6 L 821.8 912.6 L 821.8 915.6 L 1099.0 915.6 Z M 1099.0 912.6 "></path></clipPath><g clip-path="url(#clip0x6000028b89c0)"><path d="M 0.0 0.4 L 275.0 0.4 " fill="none" stroke="#D5D5D5" stroke-width="1.00" transform="matrix(-1.00, 0.00, 0.00, 1.00, 1098.0, 914.1)"></path></g></g><g><clipPath id="clip0x6000028b8c00"><path d="M 1099.0 821.6 L 821.8 821.6 L 821.8 824.6 L 1099.0 824.6 Z M 1099.0 821.6 "></path></clipPath><g clip-path="url(#clip0x6000028b8c00)"><path d="M 0.0 0.4 L 275.0 0.4 " fill="none" stroke="#D5D5D5" stroke-width="1.00" transform="matrix(-1.00, 0.00, 0.00, 1.00, 1098.0, 823.1)"></path></g></g><image xlink:href="../../647C4DC5-055F-42B4-992C-93F9A8A81104/assets/79DF6794D3CCA907B9E2C669267B52A4.png" width="1456.00" height="241.00" transform="matrix(1.00, 0.00, -0.00, -1.00, 231.4, 258.5)" opacity="0.50"></image><g><clipPath id="clip0x6080044bbc00"><path d="M 233.0 257.0 L 1686.0 257.0 L 1686.0 20.0 L 233.0 20.0 Z M 233.4 257.5 "></path></clipPath><g clip-path="url(#clip0x6080044bbc00)"><path d="M 233.0 20.0 L 1686.0 20.0 L 1686.0 257.0 L 233.0 257.0 Z M 233.0 20.0 " fill="url(#patternP1)"></path></g></g><text xml:space="preserve" font-family="KenVector-Future-Thin,KenVector Future Thin" font-size="46.0" fill="#FEFFFE" transform="matrix(1.00, 0.00, -0.00, -1.00, 486.0, 176.4)">t</text><text xml:space="preserve" font-family="KenVector-Future-Thin,KenVector Future Thin" font-size="46.0" fill="#FEFFFE" transform="matrix(1.00, 0.00, -0.00, -1.00, 512.8, 176.4)">h</text><text xml:space="preserve" font-family="KenVector-Future-Thin,KenVector Future Thin" font-size="46.0" fill="#FEFFFE" transform="matrix(1.00, 0.00, -0.00, -1.00, 545.3, 176.4)">e</text><text xml:space="preserve" font-family="KenVector-Future-Thin,KenVector Future Thin" font-size="46.0" fill="#FEFFFE" transform="matrix(1.00, 0.00, -0.00, -1.00, 577.8, 176.4)"> </text><text xml:space="preserve" font-family="KenVector-Future-Thin,KenVector Future Thin" font-size="46.0" fill="#FEFFFE" transform="matrix(1.00, 0.00, -0.00, -1.00, 589.3, 176.4)">c</text><text xml:space="preserve" font-family="KenVector-Future-Thin,KenVector Future Thin" font-size="46.0" fill="#FEFFFE" transform="matrix(1.00, 0.00, -0.00, -1.00, 621.8, 176.4)">e</text><text xml:space="preserve" font-family="KenVector-Future-Thin,KenVector Future Thin" font-size="46.0" fill="#FEFFFE" transform="matrix(1.00, 0.00, -0.00, -1.00, 654.4, 176.4)">l</text><text xml:space="preserve" font-family="KenVector-Future-Thin,KenVector Future Thin" font-size="46.0" fill="#FEFFFE" transform="matrix(1.00, 0.00, -0.00, -1.00, 686.9, 176.4)">l</text><text xml:space="preserve" font-family="KenVector-Future-Thin,KenVector Future Thin" font-size="46.0" fill="#FEFFFE" transform="matrix(1.00, 0.00, -0.00, -1.00, 719.4, 176.4)"> </text><text xml:space="preserve" font-family="KenVector-Future-Thin,KenVector Future Thin" font-size="46.0" fill="#FEFFFE" transform="matrix(1.00, 0.00, -0.00, -1.00, 730.9, 176.4)">y</text><text xml:space="preserve" font-family="KenVector-Future-Thin,KenVector Future Thin" font-size="46.0" fill="#FEFFFE" transform="matrix(1.00, 0.00, -0.00, -1.00, 763.4, 176.4)">o</text><text xml:space="preserve" font-family="KenVector-Future-Thin,KenVector Future Thin" font-size="46.0" fill="#FEFFFE" transform="matrix(1.00, 0.00, -0.00, -1.00, 795.9, 176.4)">u</text><text xml:space="preserve" font-family="KenVector-Future-Thin,KenVector Future Thin" font-size="46.0" fill="#FEFFFE" transform="matrix(1.00, 0.00, -0.00, -1.00, 828.5, 176.4)"> </text><text xml:space="preserve" font-family="KenVector-Future-Thin,KenVector Future Thin" font-size="46.0" fill="#FEFFFE" transform="matrix(1.00, 0.00, -0.00, -1.00, 840.0, 176.4)">p</text><text xml:space="preserve" font-family="KenVector-Future-Thin,KenVector Future Thin" font-size="46.0" fill="#FEFFFE" transform="matrix(1.00, 0.00, -0.00, -1.00, 872.5, 176.4)">l</text><text xml:space="preserve" font-family="KenVector-Future-Thin,KenVector Future Thin" font-size="46.0" fill="#FEFFFE" transform="matrix(1.00, 0.00, -0.00, -1.00, 905.0, 176.4)">a</text><text xml:space="preserve" font-family="KenVector-Future-Thin,KenVector Future Thin" font-size="46.0" fill="#FEFFFE" transform="matrix(1.00, 0.00, -0.00, -1.00, 937.5, 176.4)">c</text><text xml:space="preserve" font-family="KenVector-Future-Thin,KenVector Future Thin" font-size="46.0" fill="#FEFFFE" transform="matrix(1.00, 0.00, -0.00, -1.00, 970.1, 176.4)">e</text><text xml:space="preserve" font-family="KenVector-Future-Thin,KenVector Future Thin" font-size="46.0" fill="#FEFFFE" transform="matrix(1.00, 0.00, -0.00, -1.00, 1002.6, 176.4)"> </text><text xml:space="preserve" font-family="KenVector-Future-Thin,KenVector Future Thin" font-size="46.0" fill="#FEFFFE" transform="matrix(1.00, 0.00, -0.00, -1.00, 1014.1, 176.4)">y</text><text xml:space="preserve" font-family="KenVector-Future-Thin,KenVector Future Thin" font-size="46.0" fill="#FEFFFE" transform="matrix(1.00, 0.00, -0.00, -1.00, 1046.6, 176.4)">o</text><text xml:space="preserve" font-family="KenVector-Future-Thin,KenVector Future Thin" font-size="46.0" fill="#FEFFFE" transform="matrix(1.00, 0.00, -0.00, -1.00, 1079.1, 176.4)">u</text><text xml:space="preserve" font-family="KenVector-Future-Thin,KenVector Future Thin" font-size="46.0" fill="#FEFFFE" transform="matrix(1.00, 0.00, -0.00, -1.00, 1111.7, 176.4)">r</text><text xml:space="preserve" font-family="KenVector-Future-Thin,KenVector Future Thin" font-size="46.0" fill="#FEFFFE" transform="matrix(1.00, 0.00, -0.00, -1.00, 1144.2, 176.4)"> </text><text xml:space="preserve" font-family="KenVector-Future-Thin,KenVector Future Thin" font-size="46.0" fill="#FEFFFE" transform="matrix(1.00, 0.00, -0.00, -1.00, 1155.7, 176.4)">m</text><text xml:space="preserve" font-family="KenVector-Future-Thin,KenVector Future Thin" font-size="46.0" fill="#FEFFFE" transform="matrix(1.00, 0.00, -0.00, -1.00, 1194.0, 176.4)">a</text><text xml:space="preserve" font-family="KenVector-Future-Thin,KenVector Future Thin" font-size="46.0" fill="#FEFFFE" transform="matrix(1.00, 0.00, -0.00, -1.00, 1226.5, 176.4)">r</text><text xml:space="preserve" font-family="KenVector-Future-Thin,KenVector Future Thin" font-size="46.0" fill="#FEFFFE" transform="matrix(1.00, 0.00, -0.00, -1.00, 1259.0, 176.4)">k</text><text xml:space="preserve" font-family="KenVector-Future-Thin,KenVector Future Thin" font-size="46.0" fill="#FEFFFE" transform="matrix(1.00, 0.00, -0.00, -1.00, 1291.5, 176.4)">e</text><text xml:space="preserve" font-family="KenVector-Future-Thin,KenVector Future Thin" font-size="46.0" fill="#FEFFFE" transform="matrix(1.00, 0.00, -0.00, -1.00, 1324.0, 176.4)">r</text><text xml:space="preserve" font-family="KenVector-Future-Thin,KenVector Future Thin" font-size="46.0" fill="#FEFFFE" transform="matrix(1.00, 0.00, -0.00, -1.00, 1356.6, 176.4)"> </text><text xml:space="preserve" font-family="KenVector-Future-Thin,KenVector Future Thin" font-size="46.0" fill="#FEFFFE" transform="matrix(1.00, 0.00, -0.00, -1.00, 1368.1, 176.4)">o</text><text xml:space="preserve" font-family="KenVector-Future-Thin,KenVector Future Thin" font-size="46.0" fill="#FEFFFE" transform="matrix(1.00, 0.00, -0.00, -1.00, 1400.6, 176.4)">n</text><text xml:space="preserve" font-family="KenVector-Future-Thin,KenVector Future Thin" font-size="46.0" fill="#FEFFFE" transform="matrix(1.00, 0.00, -0.00, -1.00, 1433.1, 176.4)"> </text><text xml:space="preserve" font-family="KenVector-Future-Thin,KenVector Future Thin" font-size="46.0" fill="#FEFFFE" transform="matrix(1.00, 0.00, -0.00, -1.00, 533.9, 124.4)">w</text><text xml:space="preserve" font-family="KenVector-Future-Thin,KenVector Future Thin" font-size="46.0" fill="#FEFFFE" transform="matrix(1.00, 0.00, -0.00, -1.00, 572.1, 124.4)">i</text><text xml:space="preserve" font-family="KenVector-Future-Thin,KenVector Future Thin" font-size="46.0" fill="#FEFFFE" transform="matrix(1.00, 0.00, -0.00, -1.00, 587.4, 124.4)">l</text><text xml:space="preserve" font-family="KenVector-Future-Thin,KenVector Future Thin" font-size="46.0" fill="#FEFFFE" transform="matrix(1.00, 0.00, -0.00, -1.00, 619.9, 124.4)">l</text><text xml:space="preserve" font-family="KenVector-Future-Thin,KenVector Future Thin" font-size="46.0" fill="#FEFFFE" transform="matrix(1.00, 0.00, -0.00, -1.00, 652.5, 124.4)"> </text><text xml:space="preserve" font-family="KenVector-Future-Thin,KenVector Future Thin" font-size="46.0" fill="#FEFFFE" transform="matrix(1.00, 0.00, -0.00, -1.00, 664.0, 124.4)">d</text><text xml:space="preserve" font-family="KenVector-Future-Thin,KenVector Future Thin" font-size="46.0" fill="#FEFFFE" transform="matrix(1.00, 0.00, -0.00, -1.00, 696.5, 124.4)">e</text><text xml:space="preserve" font-family="KenVector-Future-Thin,KenVector Future Thin" font-size="46.0" fill="#FEFFFE" transform="matrix(1.00, 0.00, -0.00, -1.00, 729.0, 124.4)">t</text><text xml:space="preserve" font-family="KenVector-Future-Thin,KenVector Future Thin" font-size="46.0" fill="#FEFFFE" transform="matrix(1.00, 0.00, -0.00, -1.00, 755.8, 124.4)">e</text><text xml:space="preserve" font-family="KenVector-Future-Thin,KenVector Future Thin" font-size="46.0" fill="#FEFFFE" transform="matrix(1.00, 0.00, -0.00, -1.00, 788.3, 124.4)">r</text><text xml:space="preserve" font-family="KenVector-Future-Thin,KenVector Future Thin" font-size="46.0" fill="#FEFFFE" transform="matrix(1.00, 0.00, -0.00, -1.00, 820.8, 124.4)">m</text><text xml:space="preserve" font-family="KenVector-Future-Thin,KenVector Future Thin" font-size="46.0" fill="#FEFFFE" transform="matrix(1.00, 0.00, -0.00, -1.00, 859.1, 124.4)">i</text><text xml:space="preserve" font-family="KenVector-Future-Thin,KenVector Future Thin" font-size="46.0" fill="#FEFFFE" transform="matrix(1.00, 0.00, -0.00, -1.00, 874.4, 124.4)">n</text><text xml:space="preserve" font-family="KenVector-Future-Thin,KenVector Future Thin" font-size="46.0" fill="#FEFFFE" transform="matrix(1.00, 0.00, -0.00, -1.00, 906.9, 124.4)">e</text><text xml:space="preserve" font-family="KenVector-Future-Thin,KenVector Future Thin" font-size="46.0" fill="#FEFFFE" transform="matrix(1.00, 0.00, -0.00, -1.00, 939.4, 124.4)"> </text><text xml:space="preserve" font-family="KenVector-Future-Thin,KenVector Future Thin" font-size="46.0" fill="#FEFFFE" transform="matrix(1.00, 0.00, -0.00, -1.00, 950.9, 124.4)">w</text><text xml:space="preserve" font-family="KenVector-Future-Thin,KenVector Future Thin" font-size="46.0" fill="#FEFFFE" transform="matrix(1.00, 0.00, -0.00, -1.00, 989.2, 124.4)">h</text><text xml:space="preserve" font-family="KenVector-Future-Thin,KenVector Future Thin" font-size="46.0" fill="#FEFFFE" transform="matrix(1.00, 0.00, -0.00, -1.00, 1021.7, 124.4)">i</text><text xml:space="preserve" font-family="KenVector-Future-Thin,KenVector Future Thin" font-size="46.0" fill="#FEFFFE" transform="matrix(1.00, 0.00, -0.00, -1.00, 1037.0, 124.4)">c</text><text xml:space="preserve" font-family="KenVector-Future-Thin,KenVector Future Thin" font-size="46.0" fill="#FEFFFE" transform="matrix(1.00, 0.00, -0.00, -1.00, 1069.5, 124.4)">h</text><text xml:space="preserve" font-family="KenVector-Future-Thin,KenVector Future Thin" font-size="46.0" fill="#FEFFFE" transform="matrix(1.00, 0.00, -0.00, -1.00, 1102.0, 124.4)"> </text><text xml:space="preserve" font-family="KenVector-Future-Thin,KenVector Future Thin" font-size="46.0" fill="#FEFFFE" transform="matrix(1.00, 0.00, -0.00, -1.00, 1113.5, 124.4)">b</text><text xml:space="preserve" font-family="KenVector-Future-Thin,KenVector Future Thin" font-size="46.0" fill="#FEFFFE" transform="matrix(1.00, 0.00, -0.00, -1.00, 1146.1, 124.4)">o</text><text xml:space="preserve" font-family="KenVector-Future-Thin,KenVector Future Thin" font-size="46.0" fill="#FEFFFE" transform="matrix(1.00, 0.00, -0.00, -1.00, 1178.6, 124.4)">a</text><text xml:space="preserve" font-family="KenVector-Future-Thin,KenVector Future Thin" font-size="46.0" fill="#FEFFFE" transform="matrix(1.00, 0.00, -0.00, -1.00, 1211.1, 124.4)">r</text><text xml:space="preserve" font-family="KenVector-Future-Thin,KenVector Future Thin" font-size="46.0" fill="#FEFFFE" transform="matrix(1.00, 0.00, -0.00, -1.00, 1243.6, 124.4)">d</text><text xml:space="preserve" font-family="KenVector-Future-Thin,KenVector Future Thin" font-size="46.0" fill="#FEFFFE" transform="matrix(1.00, 0.00, -0.00, -1.00, 1276.2, 124.4)"> </text><text xml:space="preserve" font-family="KenVector-Future-Thin,KenVector Future Thin" font-size="46.0" fill="#FEFFFE" transform="matrix(1.00, 0.00, -0.00, -1.00, 1287.7, 124.4)">c</text><text xml:space="preserve" font-family="KenVector-Future-Thin,KenVector Future Thin" font-size="46.0" fill="#FEFFFE" transform="matrix(1.00, 0.00, -0.00, -1.00, 1320.2, 124.4)">a</text><text xml:space="preserve" font-family="KenVector-Future-Thin,KenVector Future Thin" font-size="46.0" fill="#FEFFFE" transform="matrix(1.00, 0.00, -0.00, -1.00, 1352.7, 124.4)">n</text><text xml:space="preserve" font-family="KenVector-Future-Thin,KenVector Future Thin" font-size="46.0" fill="#FEFFFE" transform="matrix(1.00, 0.00, -0.00, -1.00, 1385.2, 124.4)"> </text><text xml:space="preserve" font-family="KenVector-Future-Thin,KenVector Future Thin" font-size="46.0" fill="#FEFFFE" transform="matrix(1.00, 0.00, -0.00, -1.00, 619.9, 72.4)">y</text><text xml:space="preserve" font-family="KenVector-Future-Thin,KenVector Future Thin" font-size="46.0" fill="#FEFFFE" transform="matrix(1.00, 0.00, -0.00, -1.00, 652.5, 72.4)">o</text><text xml:space="preserve" font-family="KenVector-Future-Thin,KenVector Future Thin" font-size="46.0" fill="#FEFFFE" transform="matrix(1.00, 0.00, -0.00, -1.00, 685.0, 72.4)">u</text><text xml:space="preserve" font-family="KenVector-Future-Thin,KenVector Future Thin" font-size="46.0" fill="#FEFFFE" transform="matrix(1.00, 0.00, -0.00, -1.00, 717.5, 72.4)">r</text><text xml:space="preserve" font-family="KenVector-Future-Thin,KenVector Future Thin" font-size="46.0" fill="#FEFFFE" transform="matrix(1.00, 0.00, -0.00, -1.00, 750.0, 72.4)"> </text><text xml:space="preserve" font-family="KenVector-Future-Thin,KenVector Future Thin" font-size="46.0" fill="#FEFFFE" transform="matrix(1.00, 0.00, -0.00, -1.00, 761.5, 72.4)">o</text><text xml:space="preserve" font-family="KenVector-Future-Thin,KenVector Future Thin" font-size="46.0" fill="#FEFFFE" transform="matrix(1.00, 0.00, -0.00, -1.00, 794.1, 72.4)">p</text><text xml:space="preserve" font-family="KenVector-Future-Thin,KenVector Future Thin" font-size="46.0" fill="#FEFFFE" transform="matrix(1.00, 0.00, -0.00, -1.00, 826.6, 72.4)">p</text><text xml:space="preserve" font-family="KenVector-Future-Thin,KenVector Future Thin" font-size="46.0" fill="#FEFFFE" transform="matrix(1.00, 0.00, -0.00, -1.00, 859.1, 72.4)">o</text><text xml:space="preserve" font-family="KenVector-Future-Thin,KenVector Future Thin" font-size="46.0" fill="#FEFFFE" transform="matrix(1.00, 0.00, -0.00, -1.00, 891.6, 72.4)">n</text><text xml:space="preserve" font-family="KenVector-Future-Thin,KenVector Future Thin" font-size="46.0" fill="#FEFFFE" transform="matrix(1.00, 0.00, -0.00, -1.00, 924.2, 72.4)">e</text><text xml:space="preserve" font-family="KenVector-Future-Thin,KenVector Future Thin" font-size="46.0" fill="#FEFFFE" transform="matrix(1.00, 0.00, -0.00, -1.00, 956.7, 72.4)">n</text><text xml:space="preserve" font-family="KenVector-Future-Thin,KenVector Future Thin" font-size="46.0" fill="#FEFFFE" transform="matrix(1.00, 0.00, -0.00, -1.00, 989.2, 72.4)">t</text><text xml:space="preserve" font-family="KenVector-Future-Thin,KenVector Future Thin" font-size="46.0" fill="#FEFFFE" transform="matrix(1.00, 0.00, -0.00, -1.00, 1016.0, 72.4)"> </text><text xml:space="preserve" font-family="KenVector-Future-Thin,KenVector Future Thin" font-size="46.0" fill="#FEFFFE" transform="matrix(1.00, 0.00, -0.00, -1.00, 1027.5, 72.4)">m</text><text xml:space="preserve" font-family="KenVector-Future-Thin,KenVector Future Thin" font-size="46.0" fill="#FEFFFE" transform="matrix(1.00, 0.00, -0.00, -1.00, 1065.7, 72.4)">a</text><text xml:space="preserve" font-family="KenVector-Future-Thin,KenVector Future Thin" font-size="46.0" fill="#FEFFFE" transform="matrix(1.00, 0.00, -0.00, -1.00, 1098.3, 72.4)">r</text><text xml:space="preserve" font-family="KenVector-Future-Thin,KenVector Future Thin" font-size="46.0" fill="#FEFFFE" transform="matrix(1.00, 0.00, -0.00, -1.00, 1130.8, 72.4)">k</text><text xml:space="preserve" font-family="KenVector-Future-Thin,KenVector Future Thin" font-size="46.0" fill="#FEFFFE" transform="matrix(1.00, 0.00, -0.00, -1.00, 1163.3, 72.4)"> </text><text xml:space="preserve" font-family="KenVector-Future-Thin,KenVector Future Thin" font-size="46.0" fill="#FEFFFE" transform="matrix(1.00, 0.00, -0.00, -1.00, 1174.8, 72.4)">n</text><text xml:space="preserve" font-family="KenVector-Future-Thin,KenVector Future Thin" font-size="46.0" fill="#FEFFFE" transform="matrix(1.00, 0.00, -0.00, -1.00, 1207.3, 72.4)">e</text><text xml:space="preserve" font-family="KenVector-Future-Thin,KenVector Future Thin" font-size="46.0" fill="#FEFFFE" transform="matrix(1.00, 0.00, -0.00, -1.00, 1239.9, 72.4)">x</text><text xml:space="preserve" font-family="KenVector-Future-Thin,KenVector Future Thin" font-size="46.0" fill="#FEFFFE" transform="matrix(1.00, 0.00, -0.00, -1.00, 1272.4, 72.4)">t</text><image xlink:href="../../647C4DC5-055F-42B4-992C-93F9A8A81104/assets/90AF53DBA3E6A13A7E6A76CFCDC440D8.png" width="110.00" height="110.00" transform="matrix(1.00, 0.00, -0.00, -1.00, 1538.7, 193.0)" opacity="0.50"></image><g><clipPath id="clip0x6000028ba460"><path d="M 1540.7 94.6 L 1541.0 183.1 C 1541.0 188.0 1544.7 192.0 1549.5 192.0 L 1638.0 192.0 C 1642.9 192.0 1647.0 188.0 1647.0 183.1 L 1647.0 94.6 C 1647.0 89.7 1642.9 86.0 1638.0 86.0 L 1549.5 86.0 C 1544.7 86.0 1540.7 89.7 1540.7 94.6 Z M 1540.7 94.6 "></path></clipPath><g clip-path="url(#clip0x6000028ba460)"><path d="M 1540.7 94.6 L 1541.0 183.1 C 1541.0 188.0 1544.7 192.0 1549.5 192.0 L 1638.0 192.0 C 1642.9 192.0 1647.0 188.0 1647.0 183.1 L 1647.0 94.6 C 1647.0 89.7 1642.9 86.0 1638.0 86.0 L 1549.5 86.0 C 1544.7 86.0 1540.7 89.7 1540.7 94.6 Z M 1540.7 94.6 " fill="url(#gradSh1.11)"></path></g></g><g><clipPath id="clip0x600002ab94a0"><path d="M 1535.1 85.8 L 1652.5 85.8 L 1652.5 192.0 L 1535.1 192.0 Z M 1535.1 85.8 "></path></clipPath><g clip-path="url(#clip0x600002ab94a0)"><text xml:space="preserve" font-family="KenPixel,KenPixel" font-size="30.0" fill="#000000" transform="matrix(1.00, 0.00, -0.00, -1.00, 1580.7, 127.4)"> </text><text xml:space="preserve" font-family="KenPixel,KenPixel" font-size="30.0" fill="#000000" transform="matrix(1.00, 0.00, -0.00, -1.00, 1588.2, 127.4)">&gt;</text></g></g><g><clipPath id="clip0x600002ab9740"><path d="M 510.6 730.7 L 786.1 730.7 L 786.1 1006.2 L 510.6 1006.2 Z M 510.6 730.7 "></path></clipPath><g clip-path="url(#clip0x600002ab9740)"><path d="M 0.4 252.7 L 0.4 19.4 C 0.4 8.7 8.7 0.2 19.4 0.2 L 253.2 0.2 C 263.9 0.2 272.4 8.7 272.4 19.4 L 272.4 253.2 C 272.4 263.9 263.9 272.2 253.2 272.2 L 19.4 272.2 C 8.7 272.2 0.4 263.4 0.4 252.7 Z M 0.0 253.2 " fill="none" stroke="#D5D5D5" stroke-width="1.00" transform="matrix(1.00, 0.00, 0.00, -1.00, 512.1, 1004.7)"></path></g></g><g><clipPath id="clip0x600002ab9980"><path d="M 601.0 730.4 L 601.0 1006.6 L 604.0 1006.6 L 604.0 730.4 Z M 601.0 730.4 "></path></clipPath><g clip-path="url(#clip0x600002ab9980)"><path d="M -0.4 -0.0 L 274.6 -0.0 " fill="none" stroke="#D5D5D5" stroke-width="1.00" transform="matrix(0.00, 1.00, 1.00, 0.00, 602.5, 731.4)"></path></g></g><g><clipPath id="clip0x600002ab9bc0"><path d="M 693.6 730.4 L 693.6 1006.6 L 696.6 1006.6 L 696.6 730.4 Z M 693.6 730.4 "></path></clipPath><g clip-path="url(#clip0x600002ab9bc0)"><path d="M -0.4 0.4 L 274.6 0.4 " fill="none" stroke="#D5D5D5" stroke-width="1.00" transform="matrix(0.00, 1.00, 1.00, 0.00, 695.1, 731.4)"></path></g></g><g><clipPath id="clip0x600002ab9e00"><path d="M 787.4 912.3 L 510.2 912.3 L 510.2 915.3 L 787.4 915.3 Z M 787.4 912.3 "></path></clipPath><g clip-path="url(#clip0x600002ab9e00)"><path d="M 0.4 -0.3 L 275.4 -0.3 " fill="none" stroke="#D5D5D5" stroke-width="1.00" transform="matrix(-1.00, 0.00, 0.00, 1.00, 786.4, 913.8)"></path></g></g><g><clipPath id="clip0x600002aba040"><path d="M 787.4 821.4 L 510.2 821.4 L 510.2 824.4 L 787.4 824.4 Z M 787.4 821.4 "></path></clipPath><g clip-path="url(#clip0x600002aba040)"><path d="M 0.4 -0.4 L 275.4 -0.4 " fill="none" stroke="#D5D5D5" stroke-width="1.00" transform="matrix(-1.00, 0.00, 0.00, 1.00, 786.4, 822.9)"></path></g></g><image xlink:href="../../647C4DC5-055F-42B4-992C-93F9A8A81104/assets/4C49A343D0F5EAD471A67AB279CED6A1.png" width="110.00" height="110.00" transform="matrix(1.00, 0.00, -0.00, -1.00, 270.2, 193.0)" opacity="0.50"></image><g><clipPath id="clip0x600002aba160"><path d="M 272.2 94.6 L 272.0 183.1 C 272.0 188.0 276.2 192.0 281.1 192.0 L 369.6 192.0 C 374.4 192.0 378.0 188.0 378.0 183.1 L 378.0 94.6 C 378.0 89.7 374.4 86.0 369.6 86.0 L 281.1 86.0 C 276.2 86.0 272.2 89.7 272.2 94.6 Z M 272.2 94.6 "></path></clipPath><g clip-path="url(#clip0x600002aba160)"><path d="M 272.2 94.6 L 272.0 183.1 C 272.0 188.0 276.2 192.0 281.1 192.0 L 369.6 192.0 C 374.4 192.0 378.0 188.0 378.0 183.1 L 378.0 94.6 C 378.0 89.7 374.4 86.0 369.6 86.0 L 281.1 86.0 C 276.2 86.0 272.2 89.7 272.2 94.6 Z M 272.2 94.6 " fill="url(#gradSh1.12)"></path></g></g><g><clipPath id="clip0x600002cba1c0"><path d="M 266.6 85.8 L 384.0 85.8 L 384.0 192.0 L 266.6 192.0 Z M 266.6 85.8 "></path></clipPath><g clip-path="url(#clip0x600002cba1c0)"><text xml:space="preserve" font-family="KenPixel,KenPixel" font-size="30.0" fill="#000000" transform="matrix(1.00, 0.00, -0.00, -1.00, 315.9, 127.4)">&lt;</text><text xml:space="preserve" font-family="KenPixel,KenPixel" font-size="30.0" fill="#000000" transform="matrix(1.00, 0.00, -0.00, -1.00, 334.7, 127.4)"> </text></g></g><image xlink:href="../../FBCC4596-8508-43ED-96C3-04CD8F2F8C25/assets/4C1AB9F2B2D4A6607DF6904FB7005D70.png" width="88.00" height="88.00" transform="matrix(1.00, 0.00, -0.00, -1.00, 1137.0, 674.5)" opacity="0.50"></image><g><clipPath id="clip0x6080044be1e0"><path d="M 1210.7 661.2 C 1227.1 644.8 1227.1 618.1 1210.7 601.7 C 1194.3 585.3 1167.7 585.3 1151.3 601.7 C 1134.9 618.1 1134.9 644.8 1151.3 661.2 C 1167.7 677.6 1194.3 677.6 1210.7 661.2 Z M 1210.7 661.2 "></path></clipPath><g clip-path="url(#clip0x6080044be1e0)"><image xlink:href="../../FBCC4596-8508-43ED-96C3-04CD8F2F8C25/assets/79559B53344726561A56900E5F7EFED3.png" width="600.00" height="600.00" transform="matrix(0.50, 0.00, -0.00, -0.50, 1139.0, 673.5)"></image></g></g><path d="M 27.2 23.7 L 30.8 23.7 C 540.0 -51.7 669.1 55.2 418.2 344.9 " fill="none" stroke="#6FBF40" stroke-width="8.00" stroke-dasharray="8.0, 8.0" transform="matrix(1.00, 0.00, 0.00, -1.00, 790.8, 1007.7)"></path><path d="M 819.6 1000.0 L 791.1 979.9 L 824.3 969.2 Z M 819.6 1000.0 " fill="#6FBF40"></path></g></svg>