<?xml version="1.0" encoding="UTF-8" standalone="no"?><svg xmlns="http://www.w3.org/2000/svg" xmlns:xlink="http://www.w3.org/1999/xlink" clip-rule="evenodd" stroke-miterlimit="10" viewBox="0 0 1920 1080"><desc>SVG generated by Keynote</desc><defs><pattern id="patternP1" patternUnits="userSpaceOnUse" width="600" height="600" viewBox="0 0 600 600"><image xlink:href="../../647C4DC5-055F-42B4-992C-93F9A8A81104/assets/D0A2C249A1BF15739B3BE26442AD77DA.png" width="600.00" height="600.00"></image></pattern><linearGradient id="gradSh1.1" x1="0.0" y1="0.0" x2="100.0" y2="0.0" gradientUnits="userSpaceOnUse" gradientTransform="matrix(0.00, -1.08, -1.08, 0.00, 1593.8, 193.0)"><stop offset="0.00000" stop-color="#FBFBFB"></stop><stop offset="0.01466" stop-color="#FAFAFA"></stop><stop offset="1.00000" stop-color="#BEBEBE"></stop></linearGradient><linearGradient id="gradSh1.2" x1="0.0" y1="0.0" x2="100.0" y2="0.0" gradientUnits="userSpaceOnUse" gradientTransform="matrix(0.00, -1.08, -1.08, 0.00, 325.0, 193.0)"><stop offset="0.00000" stop-color="#FBFBFB"></stop><stop offset="0.01466" stop-color="#FAFAFA"></stop><stop offset="1.00000" stop-color="#BEBEBE"></stop></linearGradient></defs><g transform="matrix(1.00, 0.00, -0.00, -1.00, 0.0, 1080.0)"><path d="M 0.0 1080.0 L 1920.0 1080.0 L 1920.0 0.0 L 0.0 0.0 Z M 0.0 1080.0 " fill="#FEFFFF"></path><g><clipPath id="clip0x608001cb4520"><path d="M 510.6 402.2 L 786.1 402.2 L 786.1 677.8 L 510.6 677.8 Z M 510.6 402.2 "></path></clipPath><g clip-path="url(#clip0x608001cb4520)"><path d="M 0.4 253.3 L 0.4 19.4 C 0.4 8.7 8.7 -0.2 19.4 -0.2 L 253.2 -0.2 C 263.9 -0.2 272.4 8.7 272.4 19.4 L 272.4 253.2 C 272.4 263.9 263.9 272.8 253.2 272.8 L 19.4 272.8 C 8.7 272.8 0.4 264.0 0.4 253.3 Z M 0.0 253.2 " fill="none" stroke="#D5D5D5" stroke-width="1.00" transform="matrix(1.00, 0.00, 0.00, -1.00, 512.1, 676.3)"></path></g></g><g><clipPath id="clip0x6080014a9660"><path d="M 601.0 401.9 L 601.0 678.1 L 604.0 678.1 L 604.0 401.9 Z M 601.0 401.9 "></path></clipPath><g clip-path="url(#clip0x6080014a9660)"><path d="M 0.1 -0.0 L 274.1 -0.0 " fill="none" stroke="#D5D5D5" stroke-width="1.00" transform="matrix(0.00, 1.00, 1.00, 0.00, 602.5, 402.9)"></path></g></g><g><clipPath id="clip0x6080022bb1e0"><path d="M 693.6 401.9 L 693.6 678.1 L 696.6 678.1 L 696.6 401.9 Z M 693.6 401.9 "></path></clipPath><g clip-path="url(#clip0x6080022bb1e0)"><path d="M 0.1 0.4 L 274.1 0.4 " fill="none" stroke="#D5D5D5" stroke-width="1.00" transform="matrix(0.00, 1.00, 1.00, 0.00, 695.1, 402.9)"></path></g></g><g><clipPath id="clip0x6080026ac300"><path d="M 787.4 583.9 L 510.2 583.9 L 510.2 586.9 L 787.4 586.9 Z M 787.4 583.9 "></path></clipPath><g clip-path="url(#clip0x6080026ac300)"><path d="M 0.4 0.1 L 275.4 0.1 " fill="none" stroke="#D5D5D5" stroke-width="1.00" transform="matrix(-1.00, 0.00, 0.00, 1.00, 786.4, 585.4)"></path></g></g><g><clipPath id="clip0x6080026ac540"><path d="M 787.4 492.9 L 510.2 492.9 L 510.2 495.9 L 787.4 495.9 Z M 787.4 492.9 "></path></clipPath><g clip-path="url(#clip0x6080026ac540)"><path d="M 0.4 0.1 L 275.4 0.1 " fill="none" stroke="#D5D5D5" stroke-width="1.00" transform="matrix(-1.00, 0.00, 0.00, 1.00, 786.4, 494.4)"></path></g></g><g><clipPath id="clip0x6080026ac780"><path d="M 821.4 402.2 L 1096.9 402.2 L 1096.9 677.8 L 821.4 677.8 Z M 821.4 402.2 "></path></clipPath><g clip-path="url(#clip0x6080026ac780)"><path d="M -0.4 253.3 L -0.4 19.4 C -0.4 8.7 8.7 -0.2 19.4 -0.2 L 253.2 -0.2 C 263.9 -0.2 272.6 8.7 272.6 19.4 L 272.6 253.2 C 272.6 263.9 263.9 272.8 253.2 272.8 L 19.4 272.8 C 8.7 272.8 -0.4 264.0 -0.4 253.3 Z M 0.0 253.2 " fill="none" stroke="#D5D5D5" stroke-width="1.00" transform="matrix(1.00, 0.00, 0.00, -1.00, 822.9, 676.3)"></path></g></g><g><clipPath id="clip0x6080026ac9c0"><path d="M 911.8 401.9 L 911.8 678.1 L 914.8 678.1 L 914.8 401.9 Z M 911.8 401.9 "></path></clipPath><g clip-path="url(#clip0x6080026ac9c0)"><path d="M 0.1 0.2 L 274.1 0.2 " fill="none" stroke="#D5D5D5" stroke-width="1.00" transform="matrix(0.00, 1.00, 1.00, 0.00, 913.3, 402.9)"></path></g></g><g><clipPath id="clip0x6080026acc00"><path d="M 1004.4 401.9 L 1004.4 678.1 L 1007.4 678.1 L 1007.4 401.9 Z M 1004.4 401.9 "></path></clipPath><g clip-path="url(#clip0x6080026acc00)"><path d="M 0.1 -0.4 L 274.1 -0.4 " fill="none" stroke="#D5D5D5" stroke-width="1.00" transform="matrix(0.00, 1.00, 1.00, 0.00, 1005.9, 402.9)"></path></g></g><g><clipPath id="clip0x6080026ace40"><path d="M 1098.2 583.9 L 821.0 583.9 L 821.0 586.9 L 1098.2 586.9 Z M 1098.2 583.9 "></path></clipPath><g clip-path="url(#clip0x6080026ace40)"><path d="M 0.2 0.1 L 275.2 0.1 " fill="none" stroke="#D5D5D5" stroke-width="1.00" transform="matrix(-1.00, 0.00, 0.00, 1.00, 1097.2, 585.4)"></path></g></g><g><clipPath id="clip0x6080026ad080"><path d="M 1098.2 492.9 L 821.0 492.9 L 821.0 495.9 L 1098.2 495.9 Z M 1098.2 492.9 "></path></clipPath><g clip-path="url(#clip0x6080026ad080)"><path d="M 0.2 0.1 L 275.2 0.1 " fill="none" stroke="#D5D5D5" stroke-width="1.00" transform="matrix(-1.00, 0.00, 0.00, 1.00, 1097.2, 494.4)"></path></g></g><image xlink:href="../../647C4DC5-055F-42B4-992C-93F9A8A81104/assets/79DF6794D3CCA907B9E2C669267B52A4.png" width="1456.00" height="241.00" transform="matrix(1.00, 0.00, -0.00, -1.00, 231.4, 258.5)" opacity="0.50"></image><g><clipPath id="clip0x600001ab25a0"><path d="M 233.0 257.0 L 1686.0 257.0 L 1686.0 20.0 L 233.0 20.0 Z M 233.4 257.5 "></path></clipPath><g clip-path="url(#clip0x600001ab25a0)"><path d="M 233.0 20.0 L 1686.0 20.0 L 1686.0 257.0 L 233.0 257.0 Z M 233.0 20.0 " fill="url(#patternP1)"></path></g></g><image xlink:href="../../647C4DC5-055F-42B4-992C-93F9A8A81104/assets/90AF53DBA3E6A13A7E6A76CFCDC440D8.png" width="110.00" height="110.00" transform="matrix(1.00, 0.00, -0.00, -1.00, 1538.7, 193.0)" opacity="0.50"></image><g><clipPath id="clip0x600001cbcd40"><path d="M 1540.7 94.6 L 1541.0 183.1 C 1541.0 188.0 1544.7 192.0 1549.5 192.0 L 1638.0 192.0 C 1642.9 192.0 1647.0 188.0 1647.0 183.1 L 1647.0 94.6 C 1647.0 89.7 1642.9 86.0 1638.0 86.0 L 1549.5 86.0 C 1544.7 86.0 1540.7 89.7 1540.7 94.6 Z M 1540.7 94.6 "></path></clipPath><g clip-path="url(#clip0x600001cbcd40)"><path d="M 1540.7 94.6 L 1541.0 183.1 C 1541.0 188.0 1544.7 192.0 1549.5 192.0 L 1638.0 192.0 C 1642.9 192.0 1647.0 188.0 1647.0 183.1 L 1647.0 94.6 C 1647.0 89.7 1642.9 86.0 1638.0 86.0 L 1549.5 86.0 C 1544.7 86.0 1540.7 89.7 1540.7 94.6 Z M 1540.7 94.6 " fill="url(#gradSh1.1)"></path></g></g><g><clipPath id="clip0x6080028b4760"><path d="M 1535.1 85.8 L 1652.5 85.8 L 1652.5 192.0 L 1535.1 192.0 Z M 1535.1 85.8 "></path></clipPath><g clip-path="url(#clip0x6080028b4760)"><text xml:space="preserve" font-family="KenPixel,KenPixel" font-size="30.0" fill="#000000" transform="matrix(1.00, 0.00, -0.00, -1.00, 1580.7, 127.4)"> </text><text xml:space="preserve" font-family="KenPixel,KenPixel" font-size="30.0" fill="#000000" transform="matrix(1.00, 0.00, -0.00, -1.00, 1588.2, 127.4)">&gt;</text></g></g><text xml:space="preserve" font-family="KenVector-Future-Thin,KenVector Future Thin" font-size="46.0" fill="#FEFFFE" transform="matrix(1.00, 0.00, -0.00, -1.00, 708.0, 176.4)">t</text><text xml:space="preserve" font-family="KenVector-Future-Thin,KenVector Future Thin" font-size="46.0" fill="#FEFFFE" transform="matrix(1.00, 0.00, -0.00, -1.00, 734.8, 176.4)">h</text><text xml:space="preserve" font-family="KenVector-Future-Thin,KenVector Future Thin" font-size="46.0" fill="#FEFFFE" transform="matrix(1.00, 0.00, -0.00, -1.00, 767.3, 176.4)">e</text><text xml:space="preserve" font-family="KenVector-Future-Thin,KenVector Future Thin" font-size="46.0" fill="#FEFFFE" transform="matrix(1.00, 0.00, -0.00, -1.00, 799.8, 176.4)"> </text><text xml:space="preserve" font-family="KenVector-Future-Thin,KenVector Future Thin" font-size="46.0" fill="#FEFFFE" transform="matrix(1.00, 0.00, -0.00, -1.00, 811.3, 176.4)">g</text><text xml:space="preserve" font-family="KenVector-Future-Thin,KenVector Future Thin" font-size="46.0" fill="#FEFFFE" transform="matrix(1.00, 0.00, -0.00, -1.00, 843.8, 176.4)">o</text><text xml:space="preserve" font-family="KenVector-Future-Thin,KenVector Future Thin" font-size="46.0" fill="#FEFFFE" transform="matrix(1.00, 0.00, -0.00, -1.00, 876.4, 176.4)">a</text><text xml:space="preserve" font-family="KenVector-Future-Thin,KenVector Future Thin" font-size="46.0" fill="#FEFFFE" transform="matrix(1.00, 0.00, -0.00, -1.00, 908.9, 176.4)">l</text><text xml:space="preserve" font-family="KenVector-Future-Thin,KenVector Future Thin" font-size="46.0" fill="#FEFFFE" transform="matrix(1.00, 0.00, -0.00, -1.00, 941.4, 176.4)"> </text><text xml:space="preserve" font-family="KenVector-Future-Thin,KenVector Future Thin" font-size="46.0" fill="#FEFFFE" transform="matrix(1.00, 0.00, -0.00, -1.00, 952.9, 176.4)">i</text><text xml:space="preserve" font-family="KenVector-Future-Thin,KenVector Future Thin" font-size="46.0" fill="#FEFFFE" transform="matrix(1.00, 0.00, -0.00, -1.00, 968.2, 176.4)">s</text><text xml:space="preserve" font-family="KenVector-Future-Thin,KenVector Future Thin" font-size="46.0" fill="#FEFFFE" transform="matrix(1.00, 0.00, -0.00, -1.00, 1000.7, 176.4)"> </text><text xml:space="preserve" font-family="KenVector-Future-Thin,KenVector Future Thin" font-size="46.0" fill="#FEFFFE" transform="matrix(1.00, 0.00, -0.00, -1.00, 1012.2, 176.4)">s</text><text xml:space="preserve" font-family="KenVector-Future-Thin,KenVector Future Thin" font-size="46.0" fill="#FEFFFE" transform="matrix(1.00, 0.00, -0.00, -1.00, 1044.7, 176.4)">i</text><text xml:space="preserve" font-family="KenVector-Future-Thin,KenVector Future Thin" font-size="46.0" fill="#FEFFFE" transform="matrix(1.00, 0.00, -0.00, -1.00, 1060.0, 176.4)">m</text><text xml:space="preserve" font-family="KenVector-Future-Thin,KenVector Future Thin" font-size="46.0" fill="#FEFFFE" transform="matrix(1.00, 0.00, -0.00, -1.00, 1098.3, 176.4)">p</text><text xml:space="preserve" font-family="KenVector-Future-Thin,KenVector Future Thin" font-size="46.0" fill="#FEFFFE" transform="matrix(1.00, 0.00, -0.00, -1.00, 1130.8, 176.4)">l</text><text xml:space="preserve" font-family="KenVector-Future-Thin,KenVector Future Thin" font-size="46.0" fill="#FEFFFE" transform="matrix(1.00, 0.00, -0.00, -1.00, 1163.3, 176.4)">e</text><text xml:space="preserve" font-family="KenVector-Future-Thin,KenVector Future Thin" font-size="46.0" fill="#FEFFFE" transform="matrix(1.00, 0.00, -0.00, -1.00, 1195.8, 176.4)">:</text><text xml:space="preserve" font-family="KenVector-Future-Thin,KenVector Future Thin" font-size="46.0" fill="#FEFFFE" transform="matrix(1.00, 0.00, -0.00, -1.00, 1211.1, 176.4)"> </text><text xml:space="preserve" font-family="KenVector-Future-Thin,KenVector Future Thin" font-size="46.0" fill="#FEFFFE" transform="matrix(1.00, 0.00, -0.00, -1.00, 447.7, 124.4)">d</text><text xml:space="preserve" font-family="KenVector-Future-Thin,KenVector Future Thin" font-size="46.0" fill="#FEFFFE" transform="matrix(1.00, 0.00, -0.00, -1.00, 480.2, 124.4)">o</text><text xml:space="preserve" font-family="KenVector-Future-Thin,KenVector Future Thin" font-size="46.0" fill="#FEFFFE" transform="matrix(1.00, 0.00, -0.00, -1.00, 512.8, 124.4)"> </text><text xml:space="preserve" font-family="KenVector-Future-Thin,KenVector Future Thin" font-size="46.0" fill="#FEFFFE" transform="matrix(1.00, 0.00, -0.00, -1.00, 524.3, 124.4)">y</text><text xml:space="preserve" font-family="KenVector-Future-Thin,KenVector Future Thin" font-size="46.0" fill="#FEFFFE" transform="matrix(1.00, 0.00, -0.00, -1.00, 556.8, 124.4)">o</text><text xml:space="preserve" font-family="KenVector-Future-Thin,KenVector Future Thin" font-size="46.0" fill="#FEFFFE" transform="matrix(1.00, 0.00, -0.00, -1.00, 589.3, 124.4)">u</text><text xml:space="preserve" font-family="KenVector-Future-Thin,KenVector Future Thin" font-size="46.0" fill="#FEFFFE" transform="matrix(1.00, 0.00, -0.00, -1.00, 621.8, 124.4)">r</text><text xml:space="preserve" font-family="KenVector-Future-Thin,KenVector Future Thin" font-size="46.0" fill="#FEFFFE" transform="matrix(1.00, 0.00, -0.00, -1.00, 654.4, 124.4)"> </text><text xml:space="preserve" font-family="KenVector-Future-Thin,KenVector Future Thin" font-size="46.0" fill="#FEFFFE" transform="matrix(1.00, 0.00, -0.00, -1.00, 665.9, 124.4)">b</text><text xml:space="preserve" font-family="KenVector-Future-Thin,KenVector Future Thin" font-size="46.0" fill="#FEFFFE" transform="matrix(1.00, 0.00, -0.00, -1.00, 698.4, 124.4)">e</text><text xml:space="preserve" font-family="KenVector-Future-Thin,KenVector Future Thin" font-size="46.0" fill="#FEFFFE" transform="matrix(1.00, 0.00, -0.00, -1.00, 730.9, 124.4)">s</text><text xml:space="preserve" font-family="KenVector-Future-Thin,KenVector Future Thin" font-size="46.0" fill="#FEFFFE" transform="matrix(1.00, 0.00, -0.00, -1.00, 763.4, 124.4)">t</text><text xml:space="preserve" font-family="KenVector-Future-Thin,KenVector Future Thin" font-size="46.0" fill="#FEFFFE" transform="matrix(1.00, 0.00, -0.00, -1.00, 790.2, 124.4)"> </text><text xml:space="preserve" font-family="KenVector-Future-Thin,KenVector Future Thin" font-size="46.0" fill="#FEFFFE" transform="matrix(1.00, 0.00, -0.00, -1.00, 801.7, 124.4)">t</text><text xml:space="preserve" font-family="KenVector-Future-Thin,KenVector Future Thin" font-size="46.0" fill="#FEFFFE" transform="matrix(1.00, 0.00, -0.00, -1.00, 828.5, 124.4)">o</text><text xml:space="preserve" font-family="KenVector-Future-Thin,KenVector Future Thin" font-size="46.0" fill="#FEFFFE" transform="matrix(1.00, 0.00, -0.00, -1.00, 861.0, 124.4)"> </text><text xml:space="preserve" font-family="KenVector-Future-Thin,KenVector Future Thin" font-size="46.0" fill="#FEFFFE" transform="matrix(1.00, 0.00, -0.00, -1.00, 872.5, 124.4)">g</text><text xml:space="preserve" font-family="KenVector-Future-Thin,KenVector Future Thin" font-size="46.0" fill="#FEFFFE" transform="matrix(1.00, 0.00, -0.00, -1.00, 905.0, 124.4)">e</text><text xml:space="preserve" font-family="KenVector-Future-Thin,KenVector Future Thin" font-size="46.0" fill="#FEFFFE" transform="matrix(1.00, 0.00, -0.00, -1.00, 937.5, 124.4)">t</text><text xml:space="preserve" font-family="KenVector-Future-Thin,KenVector Future Thin" font-size="46.0" fill="#FEFFFE" transform="matrix(1.00, 0.00, -0.00, -1.00, 964.3, 124.4)"> </text><text xml:space="preserve" font-family="KenVector-Future-Thin,KenVector Future Thin" font-size="46.0" fill="#FEFFFE" transform="matrix(1.00, 0.00, -0.00, -1.00, 975.8, 124.4)">3</text><text xml:space="preserve" font-family="KenVector-Future-Thin,KenVector Future Thin" font-size="46.0" fill="#FEFFFE" transform="matrix(1.00, 0.00, -0.00, -1.00, 1008.3, 124.4)"> </text><text xml:space="preserve" font-family="KenVector-Future-Thin,KenVector Future Thin" font-size="46.0" fill="#FEFFFE" transform="matrix(1.00, 0.00, -0.00, -1.00, 1019.8, 124.4)">m</text><text xml:space="preserve" font-family="KenVector-Future-Thin,KenVector Future Thin" font-size="46.0" fill="#FEFFFE" transform="matrix(1.00, 0.00, -0.00, -1.00, 1058.1, 124.4)">a</text><text xml:space="preserve" font-family="KenVector-Future-Thin,KenVector Future Thin" font-size="46.0" fill="#FEFFFE" transform="matrix(1.00, 0.00, -0.00, -1.00, 1090.6, 124.4)">r</text><text xml:space="preserve" font-family="KenVector-Future-Thin,KenVector Future Thin" font-size="46.0" fill="#FEFFFE" transform="matrix(1.00, 0.00, -0.00, -1.00, 1123.2, 124.4)">k</text><text xml:space="preserve" font-family="KenVector-Future-Thin,KenVector Future Thin" font-size="46.0" fill="#FEFFFE" transform="matrix(1.00, 0.00, -0.00, -1.00, 1155.7, 124.4)">e</text><text xml:space="preserve" font-family="KenVector-Future-Thin,KenVector Future Thin" font-size="46.0" fill="#FEFFFE" transform="matrix(1.00, 0.00, -0.00, -1.00, 1188.2, 124.4)">r</text><text xml:space="preserve" font-family="KenVector-Future-Thin,KenVector Future Thin" font-size="46.0" fill="#FEFFFE" transform="matrix(1.00, 0.00, -0.00, -1.00, 1220.7, 124.4)">s</text><text xml:space="preserve" font-family="KenVector-Future-Thin,KenVector Future Thin" font-size="46.0" fill="#FEFFFE" transform="matrix(1.00, 0.00, -0.00, -1.00, 1253.2, 124.4)"> </text><text xml:space="preserve" font-family="KenVector-Future-Thin,KenVector Future Thin" font-size="46.0" fill="#FEFFFE" transform="matrix(1.00, 0.00, -0.00, -1.00, 1264.7, 124.4)">i</text><text xml:space="preserve" font-family="KenVector-Future-Thin,KenVector Future Thin" font-size="46.0" fill="#FEFFFE" transform="matrix(1.00, 0.00, -0.00, -1.00, 1280.0, 124.4)">n</text><text xml:space="preserve" font-family="KenVector-Future-Thin,KenVector Future Thin" font-size="46.0" fill="#FEFFFE" transform="matrix(1.00, 0.00, -0.00, -1.00, 1312.5, 124.4)"> </text><text xml:space="preserve" font-family="KenVector-Future-Thin,KenVector Future Thin" font-size="46.0" fill="#FEFFFE" transform="matrix(1.00, 0.00, -0.00, -1.00, 1324.0, 124.4)">a</text><text xml:space="preserve" font-family="KenVector-Future-Thin,KenVector Future Thin" font-size="46.0" fill="#FEFFFE" transform="matrix(1.00, 0.00, -0.00, -1.00, 1356.6, 124.4)"> </text><text xml:space="preserve" font-family="KenVector-Future-Thin,KenVector Future Thin" font-size="46.0" fill="#FEFFFE" transform="matrix(1.00, 0.00, -0.00, -1.00, 1368.1, 124.4)">r</text><text xml:space="preserve" font-family="KenVector-Future-Thin,KenVector Future Thin" font-size="46.0" fill="#FEFFFE" transform="matrix(1.00, 0.00, -0.00, -1.00, 1400.6, 124.4)">o</text><text xml:space="preserve" font-family="KenVector-Future-Thin,KenVector Future Thin" font-size="46.0" fill="#FEFFFE" transform="matrix(1.00, 0.00, -0.00, -1.00, 1433.1, 124.4)">w</text><text xml:space="preserve" font-family="KenVector-Future-Thin,KenVector Future Thin" font-size="46.0" fill="#FEFFFE" transform="matrix(1.00, 0.00, -0.00, -1.00, 1471.4, 124.4)"> </text><text xml:space="preserve" font-family="KenVector-Future-Thin,KenVector Future Thin" font-size="46.0" fill="#FEFFFE" transform="matrix(1.00, 0.00, -0.00, -1.00, 587.4, 72.4)">b</text><text xml:space="preserve" font-family="KenVector-Future-Thin,KenVector Future Thin" font-size="46.0" fill="#FEFFFE" transform="matrix(1.00, 0.00, -0.00, -1.00, 619.9, 72.4)">e</text><text xml:space="preserve" font-family="KenVector-Future-Thin,KenVector Future Thin" font-size="46.0" fill="#FEFFFE" transform="matrix(1.00, 0.00, -0.00, -1.00, 652.5, 72.4)">f</text><text xml:space="preserve" font-family="KenVector-Future-Thin,KenVector Future Thin" font-size="46.0" fill="#FEFFFE" transform="matrix(1.00, 0.00, -0.00, -1.00, 685.0, 72.4)">o</text><text xml:space="preserve" font-family="KenVector-Future-Thin,KenVector Future Thin" font-size="46.0" fill="#FEFFFE" transform="matrix(1.00, 0.00, -0.00, -1.00, 717.5, 72.4)">r</text><text xml:space="preserve" font-family="KenVector-Future-Thin,KenVector Future Thin" font-size="46.0" fill="#FEFFFE" transform="matrix(1.00, 0.00, -0.00, -1.00, 750.0, 72.4)">e</text><text xml:space="preserve" font-family="KenVector-Future-Thin,KenVector Future Thin" font-size="46.0" fill="#FEFFFE" transform="matrix(1.00, 0.00, -0.00, -1.00, 782.6, 72.4)"> </text><text xml:space="preserve" font-family="KenVector-Future-Thin,KenVector Future Thin" font-size="46.0" fill="#FEFFFE" transform="matrix(1.00, 0.00, -0.00, -1.00, 794.1, 72.4)">y</text><text xml:space="preserve" font-family="KenVector-Future-Thin,KenVector Future Thin" font-size="46.0" fill="#FEFFFE" transform="matrix(1.00, 0.00, -0.00, -1.00, 826.6, 72.4)">o</text><text xml:space="preserve" font-family="KenVector-Future-Thin,KenVector Future Thin" font-size="46.0" fill="#FEFFFE" transform="matrix(1.00, 0.00, -0.00, -1.00, 859.1, 72.4)">u</text><text xml:space="preserve" font-family="KenVector-Future-Thin,KenVector Future Thin" font-size="46.0" fill="#FEFFFE" transform="matrix(1.00, 0.00, -0.00, -1.00, 891.6, 72.4)">r</text><text xml:space="preserve" font-family="KenVector-Future-Thin,KenVector Future Thin" font-size="46.0" fill="#FEFFFE" transform="matrix(1.00, 0.00, -0.00, -1.00, 924.2, 72.4)"> </text><text xml:space="preserve" font-family="KenVector-Future-Thin,KenVector Future Thin" font-size="46.0" fill="#FEFFFE" transform="matrix(1.00, 0.00, -0.00, -1.00, 935.7, 72.4)">o</text><text xml:space="preserve" font-family="KenVector-Future-Thin,KenVector Future Thin" font-size="46.0" fill="#FEFFFE" transform="matrix(1.00, 0.00, -0.00, -1.00, 968.2, 72.4)">p</text><text xml:space="preserve" font-family="KenVector-Future-Thin,KenVector Future Thin" font-size="46.0" fill="#FEFFFE" transform="matrix(1.00, 0.00, -0.00, -1.00, 1000.7, 72.4)">p</text><text xml:space="preserve" font-family="KenVector-Future-Thin,KenVector Future Thin" font-size="46.0" fill="#FEFFFE" transform="matrix(1.00, 0.00, -0.00, -1.00, 1033.2, 72.4)">o</text><text xml:space="preserve" font-family="KenVector-Future-Thin,KenVector Future Thin" font-size="46.0" fill="#FEFFFE" transform="matrix(1.00, 0.00, -0.00, -1.00, 1065.7, 72.4)">n</text><text xml:space="preserve" font-family="KenVector-Future-Thin,KenVector Future Thin" font-size="46.0" fill="#FEFFFE" transform="matrix(1.00, 0.00, -0.00, -1.00, 1098.3, 72.4)">e</text><text xml:space="preserve" font-family="KenVector-Future-Thin,KenVector Future Thin" font-size="46.0" fill="#FEFFFE" transform="matrix(1.00, 0.00, -0.00, -1.00, 1130.8, 72.4)">n</text><text xml:space="preserve" font-family="KenVector-Future-Thin,KenVector Future Thin" font-size="46.0" fill="#FEFFFE" transform="matrix(1.00, 0.00, -0.00, -1.00, 1163.3, 72.4)">t</text><text xml:space="preserve" font-family="KenVector-Future-Thin,KenVector Future Thin" font-size="46.0" fill="#FEFFFE" transform="matrix(1.00, 0.00, -0.00, -1.00, 1190.1, 72.4)"> </text><text xml:space="preserve" font-family="KenVector-Future-Thin,KenVector Future Thin" font-size="46.0" fill="#FEFFFE" transform="matrix(1.00, 0.00, -0.00, -1.00, 1201.6, 72.4)">d</text><text xml:space="preserve" font-family="KenVector-Future-Thin,KenVector Future Thin" font-size="46.0" fill="#FEFFFE" transform="matrix(1.00, 0.00, -0.00, -1.00, 1234.1, 72.4)">o</text><text xml:space="preserve" font-family="KenVector-Future-Thin,KenVector Future Thin" font-size="46.0" fill="#FEFFFE" transform="matrix(1.00, 0.00, -0.00, -1.00, 1266.6, 72.4)">e</text><text xml:space="preserve" font-family="KenVector-Future-Thin,KenVector Future Thin" font-size="46.0" fill="#FEFFFE" transform="matrix(1.00, 0.00, -0.00, -1.00, 1299.2, 72.4)">s</text><g><clipPath id="clip0x6080028b6c20"><path d="M 1132.2 402.5 L 1407.7 402.5 L 1407.7 678.1 L 1132.2 678.1 Z M 1132.2 402.5 "></path></clipPath><g clip-path="url(#clip0x6080028b6c20)"><path d="M -0.2 253.6 L -0.2 19.4 C -0.2 8.7 8.7 0.1 19.4 0.1 L 253.2 0.1 C 263.9 0.1 272.8 8.7 272.8 19.4 L 272.8 253.2 C 272.8 263.9 263.9 272.1 253.2 272.1 L 19.4 272.1 C 8.7 272.1 -0.2 264.3 -0.2 253.6 Z M 0.0 253.2 " fill="none" stroke="#D5D5D5" stroke-width="1.00" transform="matrix(1.00, 0.00, 0.00, -1.00, 1133.7, 676.6)"></path></g></g><g><clipPath id="clip0x6080028b6e60"><path d="M 1222.6 402.2 L 1222.6 678.4 L 1225.6 678.4 L 1225.6 402.2 Z M 1222.6 402.2 "></path></clipPath><g clip-path="url(#clip0x6080028b6e60)"><path d="M -0.2 0.4 L 273.8 0.4 " fill="none" stroke="#D5D5D5" stroke-width="1.00" transform="matrix(0.00, 1.00, 1.00, 0.00, 1224.1, 403.2)"></path></g></g><g><clipPath id="clip0x6080028b70a0"><path d="M 1315.2 402.2 L 1315.2 678.4 L 1318.2 678.4 L 1318.2 402.2 Z M 1315.2 402.2 "></path></clipPath><g clip-path="url(#clip0x6080028b70a0)"><path d="M -0.2 -0.2 L 273.8 -0.2 " fill="none" stroke="#D5D5D5" stroke-width="1.00" transform="matrix(0.00, 1.00, 1.00, 0.00, 1316.7, 403.2)"></path></g></g><g><clipPath id="clip0x6080028b72e0"><path d="M 1409.0 584.2 L 1131.8 584.2 L 1131.8 587.2 L 1409.0 587.2 Z M 1409.0 584.2 "></path></clipPath><g clip-path="url(#clip0x6080028b72e0)"><path d="M 0.0 -0.2 L 275.0 -0.2 " fill="none" stroke="#D5D5D5" stroke-width="1.00" transform="matrix(-1.00, 0.00, 0.00, 1.00, 1408.0, 585.7)"></path></g></g><g><clipPath id="clip0x6080028b7520"><path d="M 1409.0 493.2 L 1131.8 493.2 L 1131.8 496.2 L 1409.0 496.2 Z M 1409.0 493.2 "></path></clipPath><g clip-path="url(#clip0x6080028b7520)"><path d="M 0.0 -0.2 L 275.0 -0.2 " fill="none" stroke="#D5D5D5" stroke-width="1.00" transform="matrix(-1.00, 0.00, 0.00, 1.00, 1408.0, 494.7)"></path></g></g><g><clipPath id="clip0x6080028b7760"><path d="M 695.2 525.3 L 756.3 586.5 L 787.5 555.3 L 726.4 494.1 Z M 695.2 525.3 "></path></clipPath><g clip-path="url(#clip0x6080028b7760)"><image xlink:href="9E6B48766DDA3F6132F7A4442A7BCBD8.png" width="84.00" height="42.00" transform="matrix(0.71, 0.71, 0.71, -0.71, 696.6, 525.3)" opacity="0.50"></image></g></g><g><clipPath id="clip0x6080028b77c0"><path d="M 695.2 525.3 L 756.3 586.5 L 787.5 555.3 L 726.4 494.1 Z M 695.2 525.3 "></path></clipPath><g clip-path="url(#clip0x6080028b77c0)"><g><clipPath id="clip0x6080028b7b20"><path d="M 702.2 525.3 L 756.3 579.4 L 780.4 555.3 L 726.4 501.2 Z M 702.2 525.3 "></path></clipPath><g clip-path="url(#clip0x6080028b7b20)"><image xlink:href="54AAA609FA4289ED6813ACB24DD77507.png" width="600.00" height="600.00" transform="matrix(0.35, 0.35, 0.35, -0.35, 702.2, 525.3)"></image></g></g></g></g><g><clipPath id="clip0x600001ca2b80"><path d="M 787.5 525.2 L 726.5 586.5 L 695.2 555.4 L 756.2 494.1 Z M 787.5 525.2 "></path></clipPath><g clip-path="url(#clip0x600001ca2b80)"><image xlink:href="../../647C4DC5-055F-42B4-992C-93F9A8A81104/assets/9E6B48766DDA3F6132F7A4442A7BCBD8.png" width="84.00" height="42.00" transform="matrix(-0.71, 0.71, -0.71, -0.71, 786.1, 525.2)" opacity="0.50"></image></g></g><g><clipPath id="clip0x600001cbcce0"><path d="M 787.5 525.2 L 726.5 586.5 L 695.2 555.4 L 756.2 494.1 Z M 787.5 525.2 "></path></clipPath><g clip-path="url(#clip0x600001cbcce0)"><g><clipPath id="clip0x600001aad800"><path d="M 780.4 525.3 L 726.5 579.4 L 702.3 555.4 L 756.2 501.2 Z M 780.4 525.3 "></path></clipPath><g clip-path="url(#clip0x600001aad800)"><image xlink:href="../../647C4DC5-055F-42B4-992C-93F9A8A81104/assets/54AAA609FA4289ED6813ACB24DD77507.png" width="600.00" height="600.00" transform="matrix(-0.35, 0.35, -0.35, -0.35, 780.4, 525.3)"></image></g></g></g></g><g><clipPath id="clip0x6080028b7b80"><path d="M 602.6 522.9 L 663.8 584.0 L 695.0 552.8 L 633.8 491.7 Z M 602.6 522.9 "></path></clipPath><g clip-path="url(#clip0x6080028b7b80)"><image xlink:href="../../647C4DC5-055F-42B4-992C-93F9A8A81104/assets/9E6B48766DDA3F6132F7A4442A7BCBD8.png" width="84.00" height="42.00" transform="matrix(0.71, 0.71, 0.71, -0.71, 604.1, 522.9)" opacity="0.50"></image></g></g><g><clipPath id="clip0x6080028b7dc0"><path d="M 602.6 522.9 L 663.8 584.0 L 695.0 552.8 L 633.8 491.7 Z M 602.6 522.9 "></path></clipPath><g clip-path="url(#clip0x6080028b7dc0)"><g><clipPath id="clip0x6080028b8120"><path d="M 609.7 522.9 L 663.8 577.0 L 687.9 552.8 L 633.8 498.8 Z M 609.7 522.9 "></path></clipPath><g clip-path="url(#clip0x6080028b8120)"><image xlink:href="../../647C4DC5-055F-42B4-992C-93F9A8A81104/assets/54AAA609FA4289ED6813ACB24DD77507.png" width="600.00" height="600.00" transform="matrix(0.35, 0.35, 0.35, -0.35, 609.7, 522.9)"></image></g></g></g></g><g><clipPath id="clip0x6080028b8180"><path d="M 694.9 522.8 L 634.0 584.1 L 602.7 552.9 L 663.7 491.7 Z M 694.9 522.8 "></path></clipPath><g clip-path="url(#clip0x6080028b8180)"><image xlink:href="../../647C4DC5-055F-42B4-992C-93F9A8A81104/assets/9E6B48766DDA3F6132F7A4442A7BCBD8.png" width="84.00" height="42.00" transform="matrix(-0.71, 0.71, -0.71, -0.71, 693.5, 522.8)" opacity="0.50"></image></g></g><g><clipPath id="clip0x6080028b83c0"><path d="M 694.9 522.8 L 634.0 584.1 L 602.7 552.9 L 663.7 491.7 Z M 694.9 522.8 "></path></clipPath><g clip-path="url(#clip0x6080028b83c0)"><g><clipPath id="clip0x6080028b8720"><path d="M 687.9 522.8 L 633.9 577.0 L 609.8 552.9 L 663.7 498.7 Z M 687.9 522.8 "></path></clipPath><g clip-path="url(#clip0x6080028b8720)"><image xlink:href="../../647C4DC5-055F-42B4-992C-93F9A8A81104/assets/54AAA609FA4289ED6813ACB24DD77507.png" width="600.00" height="600.00" transform="matrix(-0.35, 0.35, -0.35, -0.35, 687.9, 522.8)"></image></g></g></g></g><g><clipPath id="clip0x6080028b8780"><path d="M 510.1 525.3 L 571.3 586.5 L 602.5 555.3 L 541.3 494.1 Z M 510.1 525.3 "></path></clipPath><g clip-path="url(#clip0x6080028b8780)"><image xlink:href="../../647C4DC5-055F-42B4-992C-93F9A8A81104/assets/9E6B48766DDA3F6132F7A4442A7BCBD8.png" width="84.00" height="42.00" transform="matrix(0.71, 0.71, 0.71, -0.71, 511.6, 525.3)" opacity="0.50"></image></g></g><g><clipPath id="clip0x6080028b89c0"><path d="M 510.1 525.3 L 571.3 586.5 L 602.5 555.3 L 541.3 494.1 Z M 510.1 525.3 "></path></clipPath><g clip-path="url(#clip0x6080028b89c0)"><g><clipPath id="clip0x6080028b8d20"><path d="M 517.2 525.3 L 571.3 579.4 L 595.4 555.3 L 541.3 501.2 Z M 517.2 525.3 "></path></clipPath><g clip-path="url(#clip0x6080028b8d20)"><image xlink:href="../../647C4DC5-055F-42B4-992C-93F9A8A81104/assets/54AAA609FA4289ED6813ACB24DD77507.png" width="600.00" height="600.00" transform="matrix(0.35, 0.35, 0.35, -0.35, 517.2, 525.3)"></image></g></g></g></g><g><clipPath id="clip0x600001abaca0"><path d="M 602.4 525.2 L 541.5 586.5 L 510.2 555.4 L 571.2 494.1 Z M 602.4 525.2 "></path></clipPath><g clip-path="url(#clip0x600001abaca0)"><image xlink:href="../../647C4DC5-055F-42B4-992C-93F9A8A81104/assets/9E6B48766DDA3F6132F7A4442A7BCBD8.png" width="84.00" height="42.00" transform="matrix(-0.71, 0.71, -0.71, -0.71, 601.0, 525.2)" opacity="0.50"></image></g></g><g><clipPath id="clip0x600001cb4f40"><path d="M 602.4 525.2 L 541.5 586.5 L 510.2 555.4 L 571.2 494.1 Z M 602.4 525.2 "></path></clipPath><g clip-path="url(#clip0x600001cb4f40)"><g><clipPath id="clip0x600001cb2ea0"><path d="M 595.4 525.3 L 541.4 579.4 L 517.3 555.4 L 571.2 501.2 Z M 595.4 525.3 "></path></clipPath><g clip-path="url(#clip0x600001cb2ea0)"><image xlink:href="../../647C4DC5-055F-42B4-992C-93F9A8A81104/assets/54AAA609FA4289ED6813ACB24DD77507.png" width="600.00" height="600.00" transform="matrix(-0.35, 0.35, -0.35, -0.35, 595.4, 525.3)"></image></g></g></g></g><g><clipPath id="clip0x6080028b8d80"><path d="M 1004.2 616.1 L 1065.3 677.2 L 1096.5 646.0 L 1035.4 584.9 Z M 1004.2 616.1 "></path></clipPath><g clip-path="url(#clip0x6080028b8d80)"><image xlink:href="../../647C4DC5-055F-42B4-992C-93F9A8A81104/assets/9E6B48766DDA3F6132F7A4442A7BCBD8.png" width="84.00" height="42.00" transform="matrix(0.71, 0.71, 0.71, -0.71, 1005.6, 616.1)" opacity="0.50"></image></g></g><g><clipPath id="clip0x6080028b8fc0"><path d="M 1004.2 616.1 L 1065.3 677.2 L 1096.5 646.0 L 1035.4 584.9 Z M 1004.2 616.1 "></path></clipPath><g clip-path="url(#clip0x6080028b8fc0)"><g><clipPath id="clip0x6080028b9320"><path d="M 1011.2 616.1 L 1065.3 670.1 L 1089.4 646.0 L 1035.4 591.9 Z M 1011.2 616.1 "></path></clipPath><g clip-path="url(#clip0x6080028b9320)"><image xlink:href="../../647C4DC5-055F-42B4-992C-93F9A8A81104/assets/54AAA609FA4289ED6813ACB24DD77507.png" width="600.00" height="600.00" transform="matrix(0.35, 0.35, 0.35, -0.35, 1011.2, 616.1)"></image></g></g></g></g><g><clipPath id="clip0x600001cb2f00"><path d="M 1096.5 616.0 L 1035.5 677.2 L 1004.2 646.1 L 1065.2 584.8 Z M 1096.5 616.0 "></path></clipPath><g clip-path="url(#clip0x600001cb2f00)"><image xlink:href="../../647C4DC5-055F-42B4-992C-93F9A8A81104/assets/9E6B48766DDA3F6132F7A4442A7BCBD8.png" width="84.00" height="42.00" transform="matrix(-0.71, 0.71, -0.71, -0.71, 1095.1, 616.0)" opacity="0.50"></image></g></g><g><clipPath id="clip0x600001aba100"><path d="M 1096.5 616.0 L 1035.5 677.2 L 1004.2 646.1 L 1065.2 584.8 Z M 1096.5 616.0 "></path></clipPath><g clip-path="url(#clip0x600001aba100)"><g><clipPath id="clip0x600001cb1a60"><path d="M 1089.4 616.0 L 1035.5 670.2 L 1011.3 646.1 L 1065.2 591.9 Z M 1089.4 616.0 "></path></clipPath><g clip-path="url(#clip0x600001cb1a60)"><image xlink:href="../../647C4DC5-055F-42B4-992C-93F9A8A81104/assets/54AAA609FA4289ED6813ACB24DD77507.png" width="600.00" height="600.00" transform="matrix(-0.35, 0.35, -0.35, -0.35, 1089.4, 616.0)"></image></g></g></g></g><g><clipPath id="clip0x600000ebfce0"><path d="M 913.4 525.3 L 974.6 586.5 L 1005.8 555.3 L 944.6 494.1 Z M 913.4 525.3 "></path></clipPath><g clip-path="url(#clip0x600000ebfce0)"><image xlink:href="../../647C4DC5-055F-42B4-992C-93F9A8A81104/assets/9E6B48766DDA3F6132F7A4442A7BCBD8.png" width="84.00" height="42.00" transform="matrix(0.71, 0.71, 0.71, -0.71, 914.9, 525.3)" opacity="0.50"></image></g></g><g><clipPath id="clip0x600001aaf7e0"><path d="M 913.4 525.3 L 974.6 586.5 L 1005.8 555.3 L 944.6 494.1 Z M 913.4 525.3 "></path></clipPath><g clip-path="url(#clip0x600001aaf7e0)"><g><clipPath id="clip0x6000018aa3e0"><path d="M 920.5 525.3 L 974.6 579.4 L 998.7 555.3 L 944.6 501.2 Z M 920.5 525.3 "></path></clipPath><g clip-path="url(#clip0x6000018aa3e0)"><image xlink:href="../../647C4DC5-055F-42B4-992C-93F9A8A81104/assets/54AAA609FA4289ED6813ACB24DD77507.png" width="600.00" height="600.00" transform="matrix(0.35, 0.35, 0.35, -0.35, 920.5, 525.3)"></image></g></g></g></g><g><clipPath id="clip0x6080028b9500"><path d="M 1005.7 525.2 L 944.8 586.5 L 913.5 555.4 L 974.5 494.1 Z M 1005.7 525.2 "></path></clipPath><g clip-path="url(#clip0x6080028b9500)"><image xlink:href="../../647C4DC5-055F-42B4-992C-93F9A8A81104/assets/9E6B48766DDA3F6132F7A4442A7BCBD8.png" width="84.00" height="42.00" transform="matrix(-0.71, 0.71, -0.71, -0.71, 1004.3, 525.2)" opacity="0.50"></image></g></g><g><clipPath id="clip0x6080028b95c0"><path d="M 1005.7 525.2 L 944.8 586.5 L 913.5 555.4 L 974.5 494.1 Z M 1005.7 525.2 "></path></clipPath><g clip-path="url(#clip0x6080028b95c0)"><g><clipPath id="clip0x6080028b9920"><path d="M 998.7 525.3 L 944.7 579.4 L 920.5 555.4 L 974.5 501.2 Z M 998.7 525.3 "></path></clipPath><g clip-path="url(#clip0x6080028b9920)"><image xlink:href="../../647C4DC5-055F-42B4-992C-93F9A8A81104/assets/54AAA609FA4289ED6813ACB24DD77507.png" width="600.00" height="600.00" transform="matrix(-0.35, 0.35, -0.35, -0.35, 998.7, 525.3)"></image></g></g></g></g><g><clipPath id="clip0x6000016abb20"><path d="M 825.4 433.9 L 886.6 495.0 L 917.8 463.8 L 856.6 402.7 Z M 825.4 433.9 "></path></clipPath><g clip-path="url(#clip0x6000016abb20)"><image xlink:href="../../647C4DC5-055F-42B4-992C-93F9A8A81104/assets/9E6B48766DDA3F6132F7A4442A7BCBD8.png" width="84.00" height="42.00" transform="matrix(0.71, 0.71, 0.71, -0.71, 826.8, 433.9)" opacity="0.50"></image></g></g><g><clipPath id="clip0x600000caedc0"><path d="M 825.4 433.9 L 886.6 495.0 L 917.8 463.8 L 856.6 402.7 Z M 825.4 433.9 "></path></clipPath><g clip-path="url(#clip0x600000caedc0)"><g><clipPath id="clip0x600001ab31a0"><path d="M 832.5 433.9 L 886.6 488.0 L 910.7 463.8 L 856.6 409.8 Z M 832.5 433.9 "></path></clipPath><g clip-path="url(#clip0x600001ab31a0)"><image xlink:href="../../647C4DC5-055F-42B4-992C-93F9A8A81104/assets/54AAA609FA4289ED6813ACB24DD77507.png" width="600.00" height="600.00" transform="matrix(0.35, 0.35, 0.35, -0.35, 832.5, 433.9)"></image></g></g></g></g><g><clipPath id="clip0x6080028b9b00"><path d="M 917.7 433.8 L 856.7 495.1 L 825.5 463.9 L 886.4 402.7 Z M 917.7 433.8 "></path></clipPath><g clip-path="url(#clip0x6080028b9b00)"><image xlink:href="../../647C4DC5-055F-42B4-992C-93F9A8A81104/assets/9E6B48766DDA3F6132F7A4442A7BCBD8.png" width="84.00" height="42.00" transform="matrix(-0.71, 0.71, -0.71, -0.71, 916.3, 433.8)" opacity="0.50"></image></g></g><g><clipPath id="clip0x6080028b9bc0"><path d="M 917.7 433.8 L 856.7 495.1 L 825.5 463.9 L 886.4 402.7 Z M 917.7 433.8 "></path></clipPath><g clip-path="url(#clip0x6080028b9bc0)"><g><clipPath id="clip0x6080028b9f20"><path d="M 910.6 433.8 L 856.7 488.0 L 832.5 463.9 L 886.5 409.7 Z M 910.6 433.8 "></path></clipPath><g clip-path="url(#clip0x6080028b9f20)"><image xlink:href="../../647C4DC5-055F-42B4-992C-93F9A8A81104/assets/54AAA609FA4289ED6813ACB24DD77507.png" width="600.00" height="600.00" transform="matrix(-0.35, 0.35, -0.35, -0.35, 910.7, 433.8)"></image></g></g></g></g><g><clipPath id="clip0x600001cb1040"><path d="M 1224.2 616.1 L 1285.4 677.2 L 1316.6 646.0 L 1255.4 584.9 Z M 1224.2 616.1 "></path></clipPath><g clip-path="url(#clip0x600001cb1040)"><image xlink:href="../../647C4DC5-055F-42B4-992C-93F9A8A81104/assets/9E6B48766DDA3F6132F7A4442A7BCBD8.png" width="84.00" height="42.00" transform="matrix(0.71, 0.71, 0.71, -0.71, 1225.6, 616.1)" opacity="0.50"></image></g></g><g><clipPath id="clip0x600001ea9300"><path d="M 1224.2 616.1 L 1285.4 677.2 L 1316.6 646.0 L 1255.4 584.9 Z M 1224.2 616.1 "></path></clipPath><g clip-path="url(#clip0x600001ea9300)"><g><clipPath id="clip0x600001cbed20"><path d="M 1231.3 616.1 L 1285.4 670.1 L 1309.5 646.0 L 1255.4 591.9 Z M 1231.3 616.1 "></path></clipPath><g clip-path="url(#clip0x600001cbed20)"><image xlink:href="../../647C4DC5-055F-42B4-992C-93F9A8A81104/assets/54AAA609FA4289ED6813ACB24DD77507.png" width="600.00" height="600.00" transform="matrix(0.35, 0.35, 0.35, -0.35, 1231.3, 616.1)"></image></g></g></g></g><g><clipPath id="clip0x6080028b9f80"><path d="M 1316.5 616.0 L 1255.5 677.2 L 1224.3 646.1 L 1285.3 584.8 Z M 1316.5 616.0 "></path></clipPath><g clip-path="url(#clip0x6080028b9f80)"><image xlink:href="../../647C4DC5-055F-42B4-992C-93F9A8A81104/assets/9E6B48766DDA3F6132F7A4442A7BCBD8.png" width="84.00" height="42.00" transform="matrix(-0.71, 0.71, -0.71, -0.71, 1315.1, 616.0)" opacity="0.50"></image></g></g><g><clipPath id="clip0x6080028ba1c0"><path d="M 1316.5 616.0 L 1255.5 677.2 L 1224.3 646.1 L 1285.3 584.8 Z M 1316.5 616.0 "></path></clipPath><g clip-path="url(#clip0x6080028ba1c0)"><g><clipPath id="clip0x6080028ba520"><path d="M 1309.5 616.0 L 1255.5 670.2 L 1231.3 646.1 L 1285.3 591.9 Z M 1309.5 616.0 "></path></clipPath><g clip-path="url(#clip0x6080028ba520)"><image xlink:href="../../647C4DC5-055F-42B4-992C-93F9A8A81104/assets/54AAA609FA4289ED6813ACB24DD77507.png" width="600.00" height="600.00" transform="matrix(-0.35, 0.35, -0.35, -0.35, 1309.5, 616.0)"></image></g></g></g></g><g><clipPath id="clip0x6080028ba580"><path d="M 1224.2 522.9 L 1285.4 584.0 L 1316.6 552.8 L 1255.4 491.7 Z M 1224.2 522.9 "></path></clipPath><g clip-path="url(#clip0x6080028ba580)"><image xlink:href="../../647C4DC5-055F-42B4-992C-93F9A8A81104/assets/9E6B48766DDA3F6132F7A4442A7BCBD8.png" width="84.00" height="42.00" transform="matrix(0.71, 0.71, 0.71, -0.71, 1225.6, 522.9)" opacity="0.50"></image></g></g><g><clipPath id="clip0x6080028ba7c0"><path d="M 1224.2 522.9 L 1285.4 584.0 L 1316.6 552.8 L 1255.4 491.7 Z M 1224.2 522.9 "></path></clipPath><g clip-path="url(#clip0x6080028ba7c0)"><g><clipPath id="clip0x6080028bab20"><path d="M 1231.3 522.9 L 1285.4 577.0 L 1309.5 552.8 L 1255.4 498.8 Z M 1231.3 522.9 "></path></clipPath><g clip-path="url(#clip0x6080028bab20)"><image xlink:href="../../647C4DC5-055F-42B4-992C-93F9A8A81104/assets/54AAA609FA4289ED6813ACB24DD77507.png" width="600.00" height="600.00" transform="matrix(0.35, 0.35, 0.35, -0.35, 1231.3, 522.9)"></image></g></g></g></g><g><clipPath id="clip0x6080028bad60"><path d="M 1316.5 522.8 L 1255.5 584.1 L 1224.3 552.9 L 1285.3 491.7 Z M 1316.5 522.8 "></path></clipPath><g clip-path="url(#clip0x6080028bad60)"><image xlink:href="../../647C4DC5-055F-42B4-992C-93F9A8A81104/assets/9E6B48766DDA3F6132F7A4442A7BCBD8.png" width="84.00" height="42.00" transform="matrix(-0.71, 0.71, -0.71, -0.71, 1315.1, 522.8)" opacity="0.50"></image></g></g><g><clipPath id="clip0x6080028badc0"><path d="M 1316.5 522.8 L 1255.5 584.1 L 1224.3 552.9 L 1285.3 491.7 Z M 1316.5 522.8 "></path></clipPath><g clip-path="url(#clip0x6080028badc0)"><g><clipPath id="clip0x6080028bb120"><path d="M 1309.5 522.8 L 1255.5 577.0 L 1231.3 552.9 L 1285.3 498.7 Z M 1309.5 522.8 "></path></clipPath><g clip-path="url(#clip0x6080028bb120)"><image xlink:href="../../647C4DC5-055F-42B4-992C-93F9A8A81104/assets/54AAA609FA4289ED6813ACB24DD77507.png" width="600.00" height="600.00" transform="matrix(-0.35, 0.35, -0.35, -0.35, 1309.5, 522.8)"></image></g></g></g></g><g><clipPath id="clip0x6080028bb180"><path d="M 1224.2 433.9 L 1285.4 495.0 L 1316.6 463.8 L 1255.4 402.7 Z M 1224.2 433.9 "></path></clipPath><g clip-path="url(#clip0x6080028bb180)"><image xlink:href="../../647C4DC5-055F-42B4-992C-93F9A8A81104/assets/9E6B48766DDA3F6132F7A4442A7BCBD8.png" width="84.00" height="42.00" transform="matrix(0.71, 0.71, 0.71, -0.71, 1225.6, 433.9)" opacity="0.50"></image></g></g><g><clipPath id="clip0x6080028bb3c0"><path d="M 1224.2 433.9 L 1285.4 495.0 L 1316.6 463.8 L 1255.4 402.7 Z M 1224.2 433.9 "></path></clipPath><g clip-path="url(#clip0x6080028bb3c0)"><g><clipPath id="clip0x6080028bb720"><path d="M 1231.3 433.9 L 1285.4 488.0 L 1309.5 463.8 L 1255.4 409.8 Z M 1231.3 433.9 "></path></clipPath><g clip-path="url(#clip0x6080028bb720)"><image xlink:href="../../647C4DC5-055F-42B4-992C-93F9A8A81104/assets/54AAA609FA4289ED6813ACB24DD77507.png" width="600.00" height="600.00" transform="matrix(0.35, 0.35, 0.35, -0.35, 1231.3, 433.9)"></image></g></g></g></g><g><clipPath id="clip0x600001ab2360"><path d="M 1316.5 433.8 L 1255.5 495.1 L 1224.3 463.9 L 1285.3 402.7 Z M 1316.5 433.8 "></path></clipPath><g clip-path="url(#clip0x600001ab2360)"><image xlink:href="../../647C4DC5-055F-42B4-992C-93F9A8A81104/assets/9E6B48766DDA3F6132F7A4442A7BCBD8.png" width="84.00" height="42.00" transform="matrix(-0.71, 0.71, -0.71, -0.71, 1315.1, 433.8)" opacity="0.50"></image></g></g><g><clipPath id="clip0x6000016b1d00"><path d="M 1316.5 433.8 L 1255.5 495.1 L 1224.3 463.9 L 1285.3 402.7 Z M 1316.5 433.8 "></path></clipPath><g clip-path="url(#clip0x6000016b1d00)"><g><clipPath id="clip0x600001cb9440"><path d="M 1309.5 433.8 L 1255.5 488.0 L 1231.3 463.9 L 1285.3 409.7 Z M 1309.5 433.8 "></path></clipPath><g clip-path="url(#clip0x600001cb9440)"><image xlink:href="../../647C4DC5-055F-42B4-992C-93F9A8A81104/assets/54AAA609FA4289ED6813ACB24DD77507.png" width="600.00" height="600.00" transform="matrix(-0.35, 0.35, -0.35, -0.35, 1309.5, 433.8)"></image></g></g></g></g><image xlink:href="4C49A343D0F5EAD471A67AB279CED6A1.png" width="110.00" height="110.00" transform="matrix(1.00, 0.00, -0.00, -1.00, 270.2, 193.0)" opacity="0.50"></image><g><clipPath id="clip0x600001ab9800"><path d="M 272.2 94.6 L 272.0 183.1 C 272.0 188.0 276.2 192.0 281.1 192.0 L 369.6 192.0 C 374.4 192.0 378.0 188.0 378.0 183.1 L 378.0 94.6 C 378.0 89.7 374.4 86.0 369.6 86.0 L 281.1 86.0 C 276.2 86.0 272.2 89.7 272.2 94.6 Z M 272.2 94.6 "></path></clipPath><g clip-path="url(#clip0x600001ab9800)"><path d="M 272.2 94.6 L 272.0 183.1 C 272.0 188.0 276.2 192.0 281.1 192.0 L 369.6 192.0 C 374.4 192.0 378.0 188.0 378.0 183.1 L 378.0 94.6 C 378.0 89.7 374.4 86.0 369.6 86.0 L 281.1 86.0 C 276.2 86.0 272.2 89.7 272.2 94.6 Z M 272.2 94.6 " fill="url(#gradSh1.2)"></path></g></g><g><clipPath id="clip0x600001cb2120"><path d="M 266.6 85.8 L 384.0 85.8 L 384.0 192.0 L 266.6 192.0 Z M 266.6 85.8 "></path></clipPath><g clip-path="url(#clip0x600001cb2120)"><text xml:space="preserve" font-family="KenPixel,KenPixel" font-size="30.0" fill="#000000" transform="matrix(1.00, 0.00, -0.00, -1.00, 315.9, 127.4)">&lt;</text><text xml:space="preserve" font-family="KenPixel,KenPixel" font-size="30.0" fill="#000000" transform="matrix(1.00, 0.00, -0.00, -1.00, 334.7, 127.4)"> </text></g></g></g></svg>